/* XPM */
static char *_d0555f639574a57e734e7189cd84d1cbV1QHUFQCDIULZuV[] = {
/* columns rows colors chars-per-pixel */
"50 50 166 2 ",
"   c None",
".  c #4A3711",
"X  c #4B3A1C",
"o  c #4D3C24",
"O  c #4F3D2C",
"+  c #523F26",
"@  c #503E2E",
"#  c #403A3B",
"$  c #513F31",
"%  c #534135",
"&  c #55433C",
"*  c #574541",
"=  c #584743",
"-  c #5B4845",
";  c #574748",
":  c #5D4B4D",
">  c #5F4D51",
",  c #614D4C",
"<  c #604E52",
"1  c #604B58",
"2  c #655156",
"3  c #65525B",
"4  c #69555C",
"5  c #6A5661",
"6  c #6C5964",
"7  c #6F5B69",
"8  c #715D6D",
"9  c #6E5E75",
"0  c #735F70",
"q  c #75686E",
"w  c #7D646E",
"e  c #7A706C",
"r  c #756173",
"t  c #766278",
"y  c #7A667B",
"u  c #7C6B7D",
"i  c #7D7178",
"p  c #9B756D",
"a  c #9E6F7C",
"s  c #83777E",
"d  c #847B79",
"f  c #92787F",
"g  c #997273",
"h  c #A57169",
"j  c #C17E6C",
"k  c #CC826D",
"l  c #DC8B6F",
"z  c #CB8675",
"x  c #786283",
"c  c #7E6A84",
"v  c #7C6589",
"b  c #7F6592",
"n  c #816C87",
"m  c #826D8B",
"M  c #85718D",
"N  c #8B7D8C",
"B  c #817381",
"V  c #836B94",
"C  c #836899",
"Z  c #886E9E",
"A  c #877292",
"S  c #897495",
"D  c #8C7699",
"F  c #8E799C",
"G  c #AC7D92",
"H  c #8D74A3",
"J  c #8F79A2",
"K  c #927CA4",
"L  c #937BAA",
"P  c #8E8587",
"I  c #968B8B",
"U  c #958B92",
"Y  c #9C9695",
"T  c #9D9895",
"R  c #A29C9B",
"E  c #A7A39F",
"W  c #9681AA",
"Q  c #9983AD",
"!  c #9B86B3",
"~  c #9E88B6",
"^  c #9E86BA",
"/  c #9F88B9",
"(  c #AC8AA7",
")  c #A189B7",
"_  c #A38CBC",
"`  c #AC91BF",
"'  c #BC95B6",
"]  c #B394BB",
"[  c #B895B8",
"{  c #B593B5",
"}  c #A6A0A1",
"|  c #AAA4A6",
" . c #ADA7A8",
".. c #AFA9AA",
"X. c #ACA8A5",
"o. c #B2AEAE",
"O. c #B3B0AD",
"+. c #A8ADB0",
"@. c #B4B5B7",
"#. c #B9B5B5",
"$. c #C58F8D",
"%. c #CC8B89",
"&. c #D28D83",
"*. c #CA9596",
"=. c #E69C8C",
"-. c #DEA09F",
";. c #EFA088",
":. c #FDAA8E",
">. c #EEA696",
",. c #E4A39D",
"<. c #EBA599",
"1. c #F3A793",
"2. c #F6A892",
"3. c #FCAB91",
"4. c #F1A99D",
"5. c #FCAE9A",
"6. c #FFB094",
"7. c #CA9BAE",
"8. c #D59EA7",
"9. c #D19DA9",
"0. c #D59FAA",
"q. c #C097B4",
"w. c #C399B2",
"e. c #DEA1A1",
"r. c #D4A2B2",
"t. c #E4A4A2",
"y. c #A68FC1",
"u. c #A68FC0",
"i. c #A58FC3",
"p. c #A68FC1",
"a. c #A68FC1",
"s. c #A690C1",
"d. c #A790C2",
"f. c #A690C3",
"g. c #A790C2",
"h. c #A891C3",
"j. c #A890C2",
"k. c #A890C1",
"l. c #A891C4",
"z. c #A992C5",
"x. c #A992C5",
"c. c #AA93C6",
"v. c #AB94C7",
"b. c #A992C4",
"n. c #AB93C8",
"m. c #AB94C8",
"M. c #AC94C8",
"N. c #AF96CC",
"B. c #AC95C9",
"V. c #C5C6C8",
"C. c #CFCDCB",
"Z. c #C5C1C2",
"A. c #CFD0CF",
"S. c #D5D3D2",
"D. c #D9D8D6",
"F. c #DDDCDC",
"G. c #D5DBDD",
"H. c #E0DFDF",
"J. c #E5E4E3",
"K. c #E8E7E7",
"L. c #E7E9EA",
"P. c #EDEDEC",
"I. c #F0EFF0",
"U. c #F5F4F4",
"Y. c #F7F8F7",
"T. c #FEFEFE",
/* pixels */
"                                                                                                    ",
"                                                                          = ,                       ",
"                , =                                                     O M F @                     ",
"              % S t O                                                 O c l.y.5                     ",
"              6 f._ 7 O                                             * m N.v.N.D o                   ",
"            o F N.l.h.r *                                           : t F Q h._ 2                   ",
"            3 f.n.) W c ,                                               . - 6 S y                   ",
"          % n K r : o                                                     >     ;                   ",
"            :   % :               @                       + *             :                         ",
"                  :           & 6 S 5 %               $ < m n %         > :                         ",
"                  :           2 ! N._ D 6 %       % 5 S ~ N.y.7 =       :                           ",
"                  : >       - W N._ h.v.y.F 6 % 3 F _ N.l.y.l.! :       :                           ",
"                    :     % A N._ f.h.y.h.n._ K ~ N.l._ y.f._ N.M %   : :                           ",
"                    : >   6 _ l.h.h.h.f.h.y.l.N.h.h.h.y.f.f.y.h._ > > 1                             ",
"                      > X S m.y.h.y.f.y.h.y.h._ f.f.y.h.y.h.h.y.l.n % % O O @                       ",
"                  @ * 3 c _ l.f.y.h.y.h.y.h.h.h.y.h.h.y.h.y.h.f.h._ F F S M n r 6 < = % :           ",
"            & - 8 M Q _ l.l.y.h.h.y.h.y.h.y.h.y.h.y.h.y.h.y.h.y.h.h.l.N.l.m.l.l.y._ Q F 4           ",
"          - A ~ k.N.m.h.f.y.h.y.y.h.y.h.y.h.y.h.y.h.y.h.y.h.y.h.y.h.h.y.y.y.y.h.l.l.v.f.3           ",
"          $ K N.y.y.y.h.h.f.y.h.h.y.h.y.h.y.h.y.h.y.h.y.h.y.h.y.h.y.h.y.h.y.h.y.f.f.l.! :           ",
"          % t l.y.y.y.h.y.h.h.y.y.h.y.h.y.h.y.h.y.h.y.h.y.h.y.h.y.h.y.h.y.h.y.h.h._ N.W &           ",
"            > ~ l.y.y.y.y.h.y.h.h.y.h.y.h.y.h.y.y.h.y.h.h.y.h.y.h.y.h.y.y.h.y.h.f.y.B.D $           ",
"            % F N.y.h.y.h.y.h.y.y.h.y.h.y.h.y.h.h.y.h.h.y.h.y.h.y.h.y.h.h.y.h.y.f.y.B.c $           ",
"            % y l.f.y.h.y.h.f.f.h.y.h.y.h.y.h.y.y.h.h.h.y.h.h.y.h.y.h.y.y.h.y.h.h.h.f.8             ",
"              , ~ l.y.y.h.y.h.y.y.h.y.h.y.h.y.h.h.y._ h.f.y.k.h.y.h.y.k.h.y.h.y._ B.~ :             ",
"              % m l.h.y.l.k.f.f.f.f.f.y.h.y.h.y.y.h.h.f.l.h.f.y.y.h.f.y.f.f.f.h.f.B.L %             ",
"              % 8 l.h.k.y.i.i.i.f.f.f.y._ h.y.h.h.y.f.f.~ y.i.] 7.8.9.' f.f.f.y.f.h.l.n %           ",
"            - 2 ! l.y.y.h.' q.' ` l._ i.l.h.f.f.y.y.l.A % 9 { t.>.>.>.,.w.y.f.f.f.h.l.l.t %         ",
"          * 4 ! n.y.i.] 9.e.,.e.0.( 5 4 ! l.f.h.h.y.y.2 - # $.4.1.:.3.1.,.] y.f.y.` k.l.y.8 *       ",
"        * 5 ) l.y.f.k.0.,.<.>.<.t.g # % m m.y.f.l.y.l.S ; w ,.5.6.:.:.2.<.q.i.k.f.f.y.y.N.~ 2       ",
"      % 6 _ l.f.i.i.' ,.>.2.3.2.4.*.4 4 ! h._ f.y.y.i.l.f.{ &.k l :.3.3.<.q.i.k.f.f.f.f._ m.K &     ",
"    - 0 _ l.f.f.k.i.w.<.1.:.:.3.=.%.G ! N.v.N.l.N.N.l._ H N o.V.@.p ;.2.,.] y.h.h.h.h.y.h.h.N.t *   ",
"    , K N.y.y.h.y.y.w.,.1.2.3.j I o. .U x b Z K C V n U e S.T.T.T.G.h 4.w.f.y.h.y.h.h._ l.l.A 2     ",
"    : 3 F l.m.f.h.y.' e.>.5.z +.T.T.T.F.T D.o.d C.o.R T.U.P Y.T.T.Y.f ' y.f.f.y.h.y.f.N.! r %       ",
"        % r W l.h.f.h.7.-.4.h L.T.Y.T.| F.T.I.o.T.T.Y Y.T.Z.#.T.T.K.x m.k.h.y.h.h.l.h.S : &         ",
"          & & c f.h.y.k.w.r.a A.T.T.Y.Y Y.T.J. .T.T.R K.T.Y.I T.T.Y L v._ h.y.h.y.f.r %             ",
"              = ~ l.h.y.` c.) B U.T.J.R T.T.P.} T.T.| F.T.T.| H.X.b N.y.h.y.h.y.l.) ;               ",
"              4 _ f.f.y.f._ v.L i J.D.#.T.T.Y.R T.T.o.F.T.T.| 1 J v.h.h.h.y.h.y.l._ 3               ",
"              6 _ f.f.f.f.f.f.B.~ v q Y J.P.Y.Y J.T.R o.#.s V _ N.y._ h.y.h.y.h.l._ 5               ",
"              8 f.h.` s.f.f.f.f.h.B./ H v n N u u M c V H p.n.l._ h.f.f.h.y.h.y.f.y.6               ",
"              r l.f.f.f.f.f.` f.f.f.h.m.N.l.y.y.l.l.m.N.n.f.y.y.f.f.f.h.y.h.y.h.f.y.8               ",
"              t v.f._ h.h.y.h.y.h.y.h.y.y.y.h.h.y.h.y.y.y.y.h.y.y.h.l.i.y._ y.y.h.y.7               ",
"            $ c l.y.h.f.h.h.y.h.y.h.y.h.y.h.y.h.h.y.h.y.h.h.y.h.h.f.l.m.N.N.m.m.N.f.5               ",
"            @ n v.f.f.f.h.y.h.y.h.h.f.h.h.y.h.y.y.h.y.h.y.h.h.y.y.l._ A S A M n n y 3               ",
"            @ n N.f.h.h.y.h.y.y._ h.y.f.y.h.y.h.h.y.h.y.h.y.y.h.y.n.c . % O O @ O $                 ",
"              8 ~ _ _ y.h.l.v.N.l.l.f.h.f.f.f.y.y.l.y.h.h.f.f.k.l.! ,                               ",
"              : : 1 4 7 8 r c n A _ l.f.h.f.y.l.h._ n.h.y.f.h._ l.c %                               ",
"                          % $ % @ 5 / l._ l.N.~ y 4 F f.v.h._ N.K &                                 ",
"                                  = 4 Q N._ A 2 &   % 7 D _ N._ 3                                   ",
"                                    = 4 m 3 $           % 2 M t %                                   ",
"                                        %                   O =                                     "
};
