/* XPM */
static char *_0d40abdb6e64f6bfc996fa467288df4DZoo1IwYLyLtSn18[] = {
/* columns rows colors chars-per-pixel */
"50 50 165 2 ",
"   c None",
".  c #000000",
"X  c #0B0000",
"o  c #140201",
"O  c #1B0200",
"+  c #190A06",
"@  c #150805",
"#  c #1D110F",
"$  c #00001B",
"%  c #1D1310",
"&  c #200200",
"*  c #2D0000",
"=  c #231304",
"-  c #281800",
";  c #28150E",
":  c #231613",
">  c #211815",
",  c #241B1A",
"<  c #2C1D18",
"1  c #27201D",
"2  c #29201F",
"3  c #30231E",
"4  c #000028",
"5  c #211E24",
"6  c #1C283B",
"7  c #23232C",
"8  c #322723",
"9  c #342926",
"0  c #332C2A",
"q  c #392F26",
"w  c #36302F",
"e  c #3C332D",
"r  c #373131",
"t  c #3D3533",
"y  c #3F3837",
"u  c #3F3A39",
"i  c #32353F",
"p  c #412E00",
"a  c #433C3A",
"s  c #433836",
"d  c #000354",
"f  c #00375F",
"g  c #28374A",
"h  c #263143",
"j  c #283E58",
"k  c #283C54",
"l  c #0A4E7A",
"z  c #2C4663",
"x  c #2A4867",
"c  c #2A4B6C",
"v  c #264F74",
"b  c #2C5174",
"n  c #3D5C7D",
"m  c #464140",
"M  c #4B4544",
"N  c #4C4847",
"B  c #4D4949",
"V  c #504947",
"C  c #544D4B",
"Z  c #59514F",
"A  c #5E5445",
"S  c #555251",
"D  c #5B5453",
"F  c #5E5856",
"G  c #5D5A5A",
"H  c #565659",
"J  c #60584F",
"K  c #605957",
"L  c #655E5C",
"P  c #67605E",
"I  c #68625E",
"U  c #5E5D60",
"Y  c #656363",
"T  c #6B6563",
"R  c #6D6A6A",
"E  c #706967",
"W  c #716D6C",
"Q  c #75716D",
"!  c #747272",
"~  c #7A7777",
"^  c #797877",
"/  c #7D7B7B",
"(  c #817F7F",
")  c #82807F",
"_  c #005288",
"`  c #00588F",
"'  c #004D91",
"]  c #00559A",
"[  c #305E87",
"{  c #00639E",
"}  c #1A699F",
"|  c #39658F",
" . c #2F6593",
".. c #366D9D",
"X. c #0067A7",
"o. c #146DA5",
"O. c #0071AE",
"+. c #0077B7",
"@. c #3571A3",
"#. c #3674A9",
"$. c #287BB7",
"%. c #377EB7",
"&. c #397CB3",
"*. c #43709C",
"=. c #4477A6",
"-. c #007DC0",
";. c #3983BE",
":. c #3C87C3",
">. c #3B89C6",
",. c #3C8CCB",
"<. c #358AC9",
"1. c #3D90CF",
"2. c #3D8FD0",
"3. c #3E91D2",
"4. c #4D8CC4",
"5. c #418FCD",
"6. c #438AC4",
"7. c #4892CE",
"8. c #5090C8",
"9. c #4392D2",
"0. c #4B96D5",
"q. c #4D9ADA",
"w. c #589FDE",
"e. c #858383",
"r. c #888786",
"t. c #8C8B8A",
"y. c #918E8B",
"u. c #959493",
"i. c #9C9995",
"p. c #9C9B9B",
"a. c #9C9791",
"s. c #A09F9F",
"d. c #A19B94",
"f. c #A4A3A3",
"g. c #A9A7A5",
"h. c #ACAAAA",
"j. c #B0ACA7",
"k. c #B0AFAE",
"l. c #AFAFB0",
"z. c #B4B3B3",
"x. c #B8B7B7",
"c. c #BBBBBB",
"v. c #C3C3C3",
"b. c #CCCBCB",
"n. c #D1CFCD",
"m. c #D5D4D4",
"M. c #D8D7D7",
"N. c #DCDBDB",
"B. c #E1DFDF",
"V. c #E4E3E3",
"C. c #E9E9E9",
"Z. c #EDECEC",
"A. c #F0EFEF",
"S. c #F2F2F2",
"D. c #F5F5F5",
"F. c #F7F7F7",
"G. c #F3F2F2",
"H. c #FAFAFA",
"J. c #F9F9F9",
"K. c gray99",
"L. c #FDFDFD",
"P. c #FDFCFC",
"I. c #FEFEFE",
"U. c white",
"Y. c #FFFFFE",
/* pixels */
"                                        . o : , , # X                                               ",
"                                    X 0 M Z F F K D Z a 2 .                                         ",
"                                  + C L T I T T I T T L K V , X                                     ",
"                                M D I I L L L L L L L L I T K w X                                   ",
"                              , K T L L L L L I I L L I L L T L t X                                 ",
"                            8 D L L L L L L L L L L I L I L L L L 8                                 ",
"                          % D T L L L L I L L L I L L L L I L L T D o                               ",
"                          s Y L L I E L L L L L L P I L L L L L I I 0                               ",
"                        X V T L T D 8 K E T I L L L L L L L L L L I N .                             ",
"                        @ D P T s r / o . s L T E T R T T T E T P I Z @                             ",
"                        # D E C X M.U.C.z.! o . . . . . . . . < L T K ,                             ",
"                        # L T . v.U.U.U.U.U.C.v.c.z.x.c.c.x.v.t.; T K ,                             ",
"                        + P s Q U.U.K.U.K.U.U.U.U.U.U.U.U.U.U.F.y D K ,                             ",
"                        @ T ; h.U.K.U.K.K.U.U.H.H.U.H.H.H.U.H.U.u.9 W @                             ",
"                        7 3 . v.U.K.U.U.U.U.U.U.U.U.U.U.U.U.K.U.b.. s @                             ",
"                        . E . v.U.H.U.G.F.U.U.U.U.U.U.F.G.U.K.U.B.X R .                             ",
"                        / K.C.Z.U.U.F.G ! U.U.H.U.U.U.! L F.U.U.F.G.F.e.                            ",
"                        f.U.U.U.U.U.F.. 0 F.U.U.U.U.H.# . G.U.K.U.U.U.h.                            ",
"                        e.U.U.U.U.U.U.M.N.U.U.G.V.U.U.N.M.U.U.U.U.U.U.t.                            ",
"                        . C.U.K.U.U.U.U.U.H.U.m.. F.U.U.U.U.U.U.U.U.C..                             ",
"  O -     . r             / t.m.U.H.U.H.K.K.U.b./ F.U.K.K.U.U.U.M.t.r.                              ",
"5 &.v p f.n.F               . h.U.U.K.U.U.U.U.U.U.U.U.U.U.U.H.U.f..                                 ",
"O 4.] d.N.( Y @               L G.U.H.U.U.H.b.C.G.v.F.U.U.K.U.D.B                                   ",
"o *.-.L B.m.f..               . v.U.K.U.U.H.i.u N e.F.U.K.K.U.z..                                   ",
"  z 7.d n.l.r.U                 @ C.U.U.H.U.U.F.G.U.U.K.H.U.M..                                     ",
"  O 8.' d.C.z.L .                 S C.U.U.H.U.U.U.U.U.U.U.C.M                                       ",
"  o =.+.Y B.g.h.X                   N m.U.U.U.U.U.U.U.U.m.N                                         ",
"    c 5.f h.c.! .                     . R h.F.U.K.U.G.! .                                           ",
"    = >....                           . u.v.F.U.U.U.H.b.B                                           ",
"    O #.:.=                         . . C.U.H.U.U.K.U.U.r..                                         ",
"      b ,.z                       B D G U.U.H.U.U.H.U.U.u.G R .                                     ",
"      , >. .X                 . G M.G.B h.U.U.U.U.U.U.h.t G.G.p.u .                                 ",
"      o &.4.e . .         . r.m.U.U.U.C.D ^ V.U.U.B.! H C.U.U.U.Z.v.W .                             ",
"        n X.. z.c..   + s.B.U.U.U.K.H.U.U.h.m p.p.y g.U.U.H.U.K.U.U.K.m.) .                         ",
"        . / ! h.U.C r.Z.U.U.U.U.U.U.U.H.U.U.G.R ! A.U.U.U.U.U.U.K.K.U.U.U.m.S .                     ",
"      . v.D.x.. m.g.x.U.U.U.H.U.U.U.U.U.K.H.U.f.h.U.U.K.U.U.U.U.U.U.K.U.U.U.G.e..                   ",
"    . M.H.Y y.f.) d.a.J.U.U.U.U.U.U.U.U.U.U.U.N.V.U.U.U.U.U.U.U.U.U.U.U.H.U.U.H.!                   ",
"    r.U.K.V.N.x.K j.( A.U.H.U.U.U.U.U.U.U.U.U.U.U.U.U.U.U.U.U.U.U.U.U.U.U.U.U.U.N..                 ",
"    h.U.U.l.R f.( j.*.n.U.U.U.U.U.U.U.U.U.U.U.U.K.U.U.U.K.H.H.H.H.K.H.U.U.z.Q W R i 6 g k j z c k & ",
"    t.U.U.Z.m.b.R v.z.i.U.U.U.U.U.U.U.U.U.U.U.U.U.U.U.U.U.U.U.U.U.U.U.U.b.. { O.O.;.:.>.>.,.,.,.x   ",
"    0 C.U.U.i.p.w b.m.^ U.U.U.U.U.U.U.U.U.U.U.U.U.U.U.U.K.N.m.M.M.m.M.M.D o.w.0.0.2.3.,.3.,.3.@.O   ",
"    . x.U.K.G.s.9 N.b.e.U.U.U.U.U.U.U.U.U.U.U.U.U.U.K.U.F.y.R / ^ ! / * l 9.>.,.,.>.,.,.>.2.>.7     ",
"      N G.U.H.v.N.U.p.h.U.U.U.U.U.U.U.U.U.U.U.U.U.U.U.U.U.U.H.U.K.U.m.$ 6.9.,.,.,.,.,.2.,.9.[ O     ",
"      . l.U.U.U.U.U.r.v.U.U.U.U.U.U.U.U.U.U.U.U.U.U.U.U.U.U.U.U.U.K.I { q.>.,.,.,.,.2.>.3.%.O       ",
"      ^ H Z.U.U.U.U.! b.U.K.U.U.U.U.U.U.U.U.U.U.U.U.U.U.U.U.U.K.U.g.d 0.>.,.,.2.,.,.,.2.2.x         ",
"      x.i.t.N.b.v.s.S Z.U.U.U.U.U.U.U.U.U.U.U.U.U.U.U.U.U.U.H.U.N.. :.1.:.,.,.,.,.,.,.3.@.O         ",
"      f.Z.e.W / t.p.M.U.U.U.U.U.U.U.U.U.U.U.U.U.U.U.U.U.U.H.U.U.W { q.8.0.,.,.5.,.,.2.>.h           ",
"      r.U.U.H.U.U.U.U.U.U.U.U.U.U.U.U.U.U.U.U.U.U.U.U.U.H.U.F.W . 8._ 4 o.9.,.,.,.,.9.| &           ",
"      ( K.U.U.U.U.K.U.U.U.U.U.U.U.U.U.U.U.U.U.U.U.U.U.U.U.G.T f.g.. y.m.A ` 7.,.,.9.%.. o           ",
"      ! H.U.H.U.U.U.U.U.U.U.U.U.U.U.U.U.U.U.U.U.U.U.H.U.C.D @ p.U.p.R U.C.q $.5.5.<.c a.H           "
};
