/* XPM */
static char *fcd9aa21754541e2a3db8db2f324da2al5fI9vh0Qt0GBPfw[] = {
/* columns rows colors chars-per-pixel */
"50 50 172 2 ",
"   c None",
".  c #000001",
"X  c #00000A",
"o  c #130000",
"O  c #1B0705",
"+  c #1D110F",
"@  c #010013",
"#  c #0B0014",
"$  c #000019",
"%  c #140A1A",
"&  c #1D1313",
"*  c #260E00",
"=  c #251300",
"-  c #3E1D00",
";  c #261B15",
":  c #342917",
">  c #382E18",
",  c #3D3219",
"<  c #000033",
"1  c #2B2422",
"2  c #2F2826",
"3  c #292735",
"4  c #3D3838",
"5  c #42371D",
"6  c #463B25",
"7  c #423D3D",
"8  c #4D411B",
"9  c #5C4E1F",
"0  c #53461D",
"q  c #674D00",
"w  c #6A5700",
"e  c #715C00",
"r  c #7C6500",
"t  c #73621D",
"y  c #5D4F20",
"u  c #564B2E",
"i  c #474139",
"p  c #5D5136",
"a  c #635420",
"s  c #6C5D23",
"d  c #7F6E2C",
"f  c #26304D",
"g  c #3F3F4A",
"h  c #3D4255",
"j  c #464241",
"k  c #4A4646",
"l  c #4F4B4A",
"z  c #4B4847",
"x  c #514D4C",
"c  c #54514E",
"v  c #555251",
"b  c #5D5B5A",
"n  c #585554",
"m  c #474B5D",
"M  c #605E5D",
"N  c #726B5E",
"B  c #5E5D61",
"V  c #585A67",
"C  c #656363",
"Z  c #6B6764",
"A  c #6E6B6B",
"S  c #706E6D",
"D  c #79746B",
"F  c #6E727F",
"G  c #757373",
"H  c #797676",
"J  c #7D7976",
"K  c #7D7B7B",
"L  c #816900",
"P  c #8A7200",
"I  c #967D00",
"U  c #8B772A",
"Y  c #8E7B2D",
"T  c #917D29",
"R  c #817F7F",
"E  c #9C8300",
"W  c #AA8E00",
"Q  c #A08700",
"!  c #AC9200",
"~  c #B69B00",
"^  c #B39919",
"/  c #99842E",
"(  c #9D8830",
")  c #AD9634",
"_  c #B29B35",
"`  c #BAA237",
"'  c #C7AB00",
"]  c #CCAE00",
"[  c #C0A100",
"{  c #CEB100",
"}  c #CFB21A",
"|  c #DCBE1C",
" . c #CFB329",
".. c #D6BA28",
"X. c #C5AC3A",
"o. c #CEB33D",
"O. c #D4B93E",
"+. c #DABD36",
"@. c #EDCD18",
"#. c #DEC13C",
"$. c #E5C628",
"%. c #F2D120",
"&. c #F2D23C",
"*. c #A28E41",
"=. c #DBBE43",
"-. c #D1B74C",
";. c #C5AD48",
":. c #DDC041",
">. c #E6C943",
",. c #EBCD45",
"<. c #E6C846",
"1. c #EFD146",
"2. c #F4D445",
"3. c #F8D947",
"4. c #F4D54A",
"5. c #F7D849",
"6. c #FCDC4A",
"7. c #F7D847",
"8. c #E9CC50",
"9. c #F4D656",
"0. c #FFDF50",
"q. c #FFE34D",
"w. c #FFEA4F",
"e. c #FFE453",
"r. c #FFE75A",
"t. c #FFE957",
"y. c #FFEF68",
"u. c #696F80",
"i. c #6D7180",
"p. c #7F879D",
"a. c #848282",
"s. c #898787",
"d. c #8B8A8A",
"f. c #888789",
"g. c #908F8E",
"h. c #878A96",
"j. c #949292",
"k. c #9D9B9B",
"l. c #94959B",
"z. c #A19F9F",
"x. c #8C91A0",
"c. c #9598A2",
"v. c #A3A2A2",
"b. c #ACABAC",
"n. c #A1A4AF",
"m. c #B0AFAF",
"M. c #B1B0AE",
"N. c #ABAEB8",
"B. c #AAACB6",
"V. c #AFB2BB",
"C. c #B3B2B2",
"Z. c #B8B7B7",
"A. c #B1B4BE",
"S. c #BBBABA",
"D. c #C0BEBB",
"F. c #B9BBC3",
"G. c #C5C4C3",
"H. c #CCCBCB",
"J. c #C5C6CA",
"K. c #D0D0CF",
"L. c #CCCDD2",
"P. c #D4D3D3",
"I. c #D8D7D7",
"U. c #DBDBDB",
"Y. c #D4D5D9",
"T. c #E4E4E4",
"R. c #E8E7E6",
"E. c #EBEBEC",
"W. c #E5E6E8",
"Q. c #F4F4F4",
"!. c #F6F7F8",
"~. c #FEFEFE",
/* pixels */
"                                        . X @ , , @ X .                                             ",
"                                    X s ` :.,.,.1.,.O._ y X                                         ",
"                                  X X.q.q.q.q.q.6.q.q.q.3.o.y X                                     ",
"                                _ >.q.6.6.3.6.6.6.6.6.6.6.w.3.( X                                   ",
"                              : 1.w.3.6.6.6.6.6.6.6.6.6.6.3.q.q.) X                                 ",
"                            y >.6.5.6.6.6.6.6.6.6.6.6.q.6.6.3.6.q.Y .                               ",
"                          @ :.w.6.3.3.6.6.6.6.6.6.6.6.6.6.6.6.6.q.,.@                               ",
"                          U q.3.3.q.t.6.6.6.6.6.6.6.6.6.6.6.6.6.3.q./                               ",
"                        . X.q.7.q.&.' 2.t.e.0.6.6.6.6.6.6.6.6.6.3.q.=..                             ",
"                        X :.q.e...7 F u P ] &.q.q.q.e.q.e.q.e.e.6.q.,.#                             ",
"                        @ >.e.<.* L.~.W.A.F p P Q Q E E E I I ! ,.q.2.0                             ",
"                        X <.e.r N.~.~.~.~.~.W.J.A.N.N.V.F.F.F.h.t 6.6.s                             ",
"                        X 8.$.n !.~.~.~.~.~.~.~.~.~.~.~.~.~.~.~.V $.6.a                             ",
"                        . 8.' x.~.~.~.~.~.~.~.!.!.~.~.!.!.!.!.~.n.! t.5                             ",
"                        $ ^ E V.~.~.~.~.~.~.~.~.~.~.~.~.~.~.~.~.Y.e } @                             ",
"                        . C . S.~.!.~.!.!.~.~.~.~.~.~.~.!.~.~.~.E.4 B ;                             ",
"                        S ~.E.E.~.~.~.J M !.~.~.~.~.~.j.7 Q.~.~.~.E.~.v.                            ",
"                        k.~.~.~.~.~.!.z . Q.~.~.~.~.~.Z . W.~.!.~.~.~.J..                           ",
"                        H ~.~.~.~.~.~.T.U.~.~.!.R.~.~.R.I.~.~.~.~.~.~.b.                            ",
"                        . R.~.~.~.~.~.~.~.~.~.T.1 E.~.~.~.~.~.~.~.~.!.l                             ",
"  X $     . +             J k.P.~.!.~.~.!.~.~.U.J E.~.~.!.~.~.~.W.j.k..                             ",
": =.T < k.P.A               . k.~.~.~.~.~.~.~.~.~.~.~.~.~.~.!.~.G.. .                               ",
"X 9.] h.R.s.b +               c Q.~.~.~.~.~.U.E.!.P.!.~.~.~.~.~.K                                   ",
". ;.%.Z U.P.b..               . S.~.~.!.~.~.v.i b S E.~.~.~.~.K..                                   ",
"  U e.L L.D.d.Z                 . T.~.!.~.~.~.Q.E.~.~.~.!.~.E.j                                     ",
"  X 9.[ x.W.S.C .                 v E.~.~.!.~.~.~.~.~.~.~.!.H                                       ",
"  . -.@.A R.m.b.;                   x I.~.~.~.~.~.~.~.~.R.G .                                       ",
"    Y 6.L B.G.R .                     . G b.!.~.~.~.!.j.o                                           ",
"    ; 4.X..                           . d.Z.Q.~.~.~.!.P.n                                           ",
"    . O.,.X                         o . U.~.~.~.~.~.~.~.v.. 1                                       ",
"      / 6.d                       4 v x ~.~.!.~.~.~.~.~.C.7 H .                                     ",
"      , 3.` .                 . 7 H.Q.M C.~.~.~.~.~.~.H.2 U.Q.z.i .                                 ",
"      . <.8.3   .         . G J.!.~.~.E.M R W.!.~.Q.l.4 I.~.~.~.E.J.S .                             ",
"        *.$.O b.Z..   . d.I.!.~.~.~.!.~.~.b.g n.N.l g.Q.~.~.~.~.~.~.!.I.R .                         ",
"        . N c b.~.v G R.~.~.~.~.~.~.~.~.~.~.Q.*.b T.~.~.~.~.~.~.!.~.~.~.~.I.b .                     ",
"      . C.!.H.. U.b.C.~.~.~.~.~.~.~.~.~.~.!.~.Z.k.~.~.~.~.~.~.~.~.~.~.~.~.~.!.d..                   ",
"    $ L.!.i.K j.d.b.j.~.~.~.~.~.~.~.~.~.~.~.~.T.U.~.~.~.~.~.~.~.~.~.~.~.~.~.~.~.s.                  ",
"    *.~.~.U.R.J.M b.a.E.~.~.~.~.~.~.~.~.~.~.~.~.~.~.~.~.~.~.~.~.~.~.~.~.~.~.~.~.E.%                 ",
"    b.~.~.D.S k.K M.s.H.~.~.~.~.~.~.~.~.~.~.~.~.~.~.~.~.~.~.!.~.~.~.!.~.~.P.h.d.d.j = 6 8 9 a s d X ",
"    g.~.~.R.P.Y.K S.S.k.~.~.~.~.~.~.~.~.~.~.~.~.~.~.~.~.~.~.~.~.~.~.~.~.E.6 W { ] #.>.1.1.4.2.6._ . ",
"    j E.~.~.k.k.l J.I.R ~.~.~.~.~.~.~.~.~.~.~.~.~.~.~.~.~.E.T.W.T.R.R.E.h.W y.t.r.q.q.q.q.q.w.,.%   ",
"    . J.~.~.E.C.1 K.I.a.~.~.~.~.~.~.~.~.~.~.~.~.~.~.~.~.~.k.b G A A J h w 6.6.3.3.3.3.6.6.3.6.U     ",
"      b !.~.~.Z.K.~.C.z.~.~.~.~.~.~.~.~.~.~.~.~.~.~.~.~.~.!.!.!.!.~.W.3 +.e.3.6.6.6.6.6.3.w.O.X     ",
"      . D.~.!.~.~.~.j.S.~.~.~.~.~.~.~.~.~.~.~.~.~.~.~.~.~.~.~.~.~.~.l.E t.3.6.6.6.6.6.6.6.3.a       ",
"      S C !.~.~.~.~.s.J.~.~.~.~.~.~.~.~.~.~.~.~.~.~.~.~.~.~.~.!.~.H.- 6.6.6.6.6.6.6.6.6.w.` X       ",
"      Z.g.z.E.T.U.S.x R.~.~.~.~.~.~.~.~.~.~.~.~.~.~.~.~.~.~.~.~.!.f  .e.3.6.6.6.6.6.3.q.,.:         ",
"      v.E.G A G R a.J.~.~.~.~.~.~.~.~.~.~.~.~.~.~.~.~.~.~.~.!.!.c.I t.r.e.3.6.6.6.6.6.q./ .         ",
"      d.~.~.E.!.~.~.~.~.~.~.~.~.~.~.~.~.~.~.~.~.~.~.~.~.~.~.~.N.. 9...L  .e.6.6.6.6.q.=.$           ",
"      R ~.~.~.~.~.~.~.~.~.~.~.~.~.~.~.~.~.~.~.~.~.~.~.~.~.~.b.*.k.q D F.m ~ e.3.3.6.6.q X           ",
"      G ~.~.!.~.~.~.~.~.~.~.~.~.~.~.~.~.~.~.~.~.~.~.~.~.!.d.. k.~.l.B ~.E.g +.e.3.q.^ i.D           "
};
