/* XPM */
static char *b386f92a56494524a575ebaa48ce7a40oRV35bkOzBBImaMV[] = {
/* columns rows colors chars-per-pixel */
"50 50 121 2 ",
"   c #C6423C",
".  c #C8483F",
"X  c #C55233",
"o  c #C7543A",
"O  c #C9543D",
"+  c #C9583E",
"@  c #CD3E47",
"#  c #BE5853",
"$  c #98725A",
"%  c #A96957",
"&  c #B86755",
"*  c #B76F55",
"=  c #BC6C54",
"-  c #A77657",
";  c #AC7657",
":  c #A97957",
">  c #A37D5A",
",  c #AD7A5A",
"<  c #B47256",
"1  c #BB7156",
"2  c #B07658",
"3  c #BA7558",
"4  c #B37B5B",
"5  c #B87A5B",
"6  c #C84540",
"7  c #CB4E44",
"8  c #CC434B",
"9  c #CE4A4F",
"0  c #D1464D",
"q  c #D54E4B",
"w  c #CB5644",
"e  c #CC5945",
"r  c #CE554A",
"t  c #CF5B4D",
"y  c #D4544C",
"u  c #D05A4E",
"i  c #CE4952",
"p  c #D44550",
"a  c #CE5551",
"s  c #CC5E50",
"d  c #D15B50",
"f  c #D5654B",
"g  c #D26C4C",
"h  c #CB754E",
"j  c #D07941",
"k  c #C56552",
"l  c #C96251",
"z  c #C26C55",
"x  c #738F51",
"c  c #759253",
"v  c #789357",
"b  c #7B965A",
"n  c #7D995D",
"m  c #6A8D66",
"M  c #758462",
"N  c #6D9864",
"B  c #6A9C69",
"V  c #779263",
"C  c #7E9465",
"Z  c #7B9A65",
"A  c #759B69",
"S  c #7D9C6A",
"D  c #71A16C",
"F  c #7EA06D",
"G  c #D4933A",
"H  c #D6983D",
"J  c #D6A53F",
"K  c #DCAE3B",
"L  c #DEB53D",
"P  c #94845D",
"I  c #9B835D",
"U  c #AD835F",
"Y  c #B1815E",
"T  c #B19C53",
"R  c #B7A352",
"E  c #888261",
"W  c #878E62",
"Q  c #8C8D62",
"!  c #958E63",
"~  c #9C8C63",
"^  c #829465",
"/  c #839E63",
"(  c #849C6A",
")  c #8C9D6C",
"_  c #949366",
"`  c #9B9266",
"'  c #959768",
"]  c #999668",
"[  c #929B6A",
"{  c #A28760",
"}  c #AB8560",
"|  c #A48A62",
" . c #A09065",
".. c #86A166",
"X. c #84A26E",
"o. c #8BA46D",
"O. c #86A671",
"+. c #8DA671",
"@. c #86A872",
"#. c #8BA872",
"$. c #91A671",
"%. c #94AC75",
"&. c #CC894D",
"*. c #D98E48",
"=. c #D99F47",
"-. c #D7A647",
";. c #DDA644",
":. c #C2BF4C",
">. c #D1B446",
",. c #DBB544",
"<. c #DDBE44",
"1. c #DBC544",
"2. c #DEC943",
"3. c #E3C541",
"4. c #E2CC44",
"5. c #E8CE44",
"6. c #E5D346",
"7. c #E9D647",
"8. c #E7D847",
"9. c #E9D847",
"0. c #EBDB48",
/* pixels */
"%.%.%.%.%.%.%.%.%.%.%.%.%.%.%.%.%.%.%.%.%.%.%.%.%.%.%.%.%.%.%.%.%.%.%.%.%.%.%.%.%.%.%.%.%.%.%.%.%.%.",
"%.%.%.%.%.%.%.%.%.%.%.%.%.%.%.%.%.%.%.%.%.%.%.%.%.%.%.%.%.%.%.%.%.%.%.%.%.%.%.%.%.%.%.%.%.%.%.%.%.%.",
"%.%.%.%.%.%.%.%.%.%.%.%.%.%.%.%.%.%.%.%.%.$.$.%.%.%.$.$.%.%.%.%.%.%.%.%.%.%.%.%.%.%.%.%.%.%.%.%.%.%.",
"%.%.%.%.%.%.%.%.%.%.%.%.%.%.%.%.%.%.%.%.%.$.+.$.%.#.#.+.+.$.%.%.%.%.%.%.%.%.%.%.%.%.%.%.%.%.%.%.%.%.",
"%.%.%.%.%.%.%.%.%.%.%.%.%.%.%.%.%.%.%.o.$.#.O.X.) [ [ ) O.O.$.$.%.+.%.%.%.%.%.%.%.%.%.%.%.%.%.%.%.%.",
"%.%.%.%.%.%.%.%.$.%.%.%.%.%.%.%.%.%.+.#.O.] Y z l s t s z | +.#.$.+.%.%.%.%.%.%.%.%.#.....o...%.%.%.",
"%.%.%.%.o...%.......o.o.o.o.+.%.%.%.#.) 4 t q u u u u u u q z [ #.%.%.%.%.%.%.....c c c c x x ..%.%.",
"%.%.%.%.o.o.$.$...../ n n n ( +.%.%.] g y u t t u u u u u s q l [ +.o.%.%.%.o.c %.%.%.%.%.%.%.%.%.%.",
"%.%.%.%.%.%.%.%.%.%.%.%.%.$.$.$.#.] u y t t u u u u u u u u t y 5 O.$.%.%.%.o.o.%.%.%.%.%.%.%.%.%.%.",
"%.%.%.%.%.%.%.%.%.%.%.%.%.$.$.+.) l y s u u u u u u u u u u u u s [ +.$.+.%.%.%.%.%.%.%.%.%.%.%.%.%.",
"%.%.%.%.%.%.%.%.%.$.%.#.$.+.+.O.4 y s u u t u u u u u u u u u u u ` +.$.%.%.%.%.%.%.%.%.%.%.%.%.%.%.",
"%.%.%.%.%.%.%.%.$.%.$.$.$.o.+.) s u u u u u u u u u u u u u u u u ! O.$.+.%.+.%.%.%.%.%.%.%.%.%.%.%.",
"%.%.%.%.%.%.$.$.#.#.@.@.O.o.X.! t t u u u u u u u u u u u u u u d ] O.+.+.%.$.%.%.%.%.%.%.%.%.%.%.%.",
"%.%.%.%.%.%.$.#.o.U 4 4 ] ( F { y t u t u u t u r t u u u u u u k ( #.+.+.$.+.+.%.%.%.%.%.%.%.%.%.%.",
"%.%.%.%.%.%.%.[ l y y y t 4 A ! u d u u u u u d e e d u u u u y 4 F ) +.O.o.[ +.O.+.%.%.%.%.%.%.%.%.",
"%.%.%.%.%.%.o.g y f t t u q 3 C l y t u u t u d r O u u u u u u _ ( ( ( | = s l Y +.+.$.$.%.%.%.%.%.",
"%.%.%.+.$.O.Y y t u t u u t q 2 P y u u d e t u u o u u u t y < S ( ( 1 y y u u q z o.+.$.$.%.%.%.%.",
"%.%.%.%.+.#.z y t u u u u u u y > ; q t u t o u u o u u u u t ! S ( z q t t u t t q 3 O.+.%.%.%.%.%.",
"%.%.%.+.+.) l y u u u u u u u u t P < q u d O o d o e d u y : A ( = y s u u u u t u u ~ O.$.$.%.%.%.",
"%.%.%.%.#.[ l u s u u u u u u u t s W 1 y t u X e O e d u l ^ A 2 y u u u u u u u d y 5 O.$.+.%.%.%.",
"%.%.%.%.+.) l u u u u u u u u e t y = V < y s r . 6 7 i y > B > y u u u u u u u u t u l ) +.$.%.%.%.",
"%.%.%.%.+.o.z y u u u u t t u t w t q > N = 0 g j L 3.;.k m I u u d d u u u u u u d u y ! #.+.$.%.%.",
"%.%.%.$.$.O.U q t u u t r w e e e w t u E M -.4.7.0.9.0.1.R 9 u d u w o o w u u u u t y U O.$.%.%.%.",
"%.%.%.%.+.#.) z y y u u a t t t w O w 8 &.:.4.6.7.7.7.7.0.0.*.q e O O e t t u u t u s y 3 O.$.$.%.%.",
"%.%.+.%.+.+.) ( , z l t t u y y y w   H 0.7.2.4.7.7.7.7.4.8.4.r t u u u u u d d d d d y # X.+.$.%.%.",
"%.%.%.%.$.+.+.( D C W P > ; * * k s f 7.9.7.4.7.7.9.7.4.2.6.3.u t e O o X X X O t d d a l ) +.%.%.%.",
"%.%.%.%.$.+.O._ 2 z l l k k * * : $ T 0.7.6.7.7.7.7.9.7.4.4.,.r u u u u u t w O w t d a l +.$.%.%.%.",
"%.%.%.%.$.O.{ t y y u u u y y y u t h 4.4.2.6.9.7.7.7.7.6.6.<.u u u u u u d u u u t d a l ) $.%.%.%.",
"%.%.%.$.O.~ y a t t t t t t e t e e @ ;.6.2.6.7.7.7.7.7.7.0.-.0 u u u u t u u u u u t y z %.%.%.%.%.",
"%.%.%.+.) z y d u u u u t e t e w O   J 6.4.9.7.9.7.7.7.6.9.=.0 k t y y u u t u u u t q R %.%.%.%.%.",
"%.%.$.#.] u u u u t u u t u u u u u y g 2.8.7.7.7.7.7.7.7.0.G 8 l ; > = u y u u u s u t %.%.%.%.%.%.",
"%.%.%.@.| u u u u u u u u u u u u u y & < ;.0.9.9.9.0.0.9.K 7 w a u ; V Q ; k t y y t | %.%.%.%.%.%.",
"%.%.%.#. .u u u u u u u u u u u u q ; - y 8 H 4.7.5.>.,.*.  w e d u q k ! B C ! { } [ O.$.$.%.%.%.%.",
"%.%.%.+.[ d u u u u u u u u u u u I P y u w 8 r g f % # 0 + O e u u u u u 2 ( A X.X.#.$.$.$.%.%.%.%.",
"%.%.%.+.O.4 q d u u u u d u y l Q C t u o O u t r y > = y w o t w d u u u y = [ o.o.$.$.+.%.%.%.%.%.",
"%.%.%.$.+.o.= q u u u u y u , C A = y t X t e e u y I * y t o d O O u u t t q = ( #.$.$.%.%.%.%.%.%.",
"%.%.%.%.%.#.o.} l a r t 1 ! S S ~ y d O w d t e u y I ; y t w r d w t u u u u y | O.+.%.%.%.%.%.%.%.",
"%.%.%.%.$.$.+.O.o.] ! [ X.X.) ( = y t w u u u r u y > > y t r e u d u u u u t y 4 O.$.+.%.%.%.%.%.%.",
"%.%.%.%.%.$.$.$.$.#.#.+.$.o.O.[ t u t r u u u e u y < Q u u u t u u u u u u t y 4 @.$.%.%.%.%.%.%.%.",
"%.%.%.%.%.%.%.#.%.$.$.$.+.$.O.! u u u u u u u e t u k C l u u u u u u u u u t y Y @.$.%.%.%.%.%.%.%.",
"%.%.%.%.%.%.%.%.%.$.#.%.$.$.#.` u t u u u u d r t d u W | p d a u u u u u d s y ` #.$.%.%.%.%.%.%.%.",
"%.%.%.%.%.%.%.%.%.%.%.%.%.+.#.) s u t u u u u t t a y ~ A 3 a d u u u u u s q z +.+.$.%.%.%.%.%.%.%.",
"%.%.%.%.%.%.%.%.%.%.%.%.%.+.$.O.{ y u u u u u t t t u { O.( & i u u t s u y s [ #.$.%.$.%.%.%.%.%.%.",
"%.%.%.%.%.%.%.%.%.%.%.%.%.%.$.$.O.U y u t t u u u t a ~ X.) X., s y y y u 1 [ #.+.$.%.%.%.%.%.%.%.%.",
"%.%.%.%.%.%.%.%.%.%.%.%.%.%.%.+.+.O.~ l y u u t t y k ) @.+.+.X.) ~ | | ' O.#.$.%.%.%.%.%.%.%.%.%.%.",
"%.%.%.%.%.%.%.%.%.%.%.%.%.o.o.o.+.+.O.) 4 t u y y t ` O.%.@.+.$.#.O.@.@.#.%.$.$.%.%.%.%.%.%.%.%.%.%.",
"%.%.%.%.%.%.%.%.%.%.%.%.o./ / / n b n ..X.[ | U | ) #.+.@.%.@.%.$.$.%.$.%.%.%.%.%.%.%.%.%.%.%.%.%.%.",
"%.%.%.%.%.%.%.%.%.%.%.%.%.%.+.o.o.o./ b v b Z O.#.+.+.%.%.%.%.%.%.$.%.%.%.%.%.%.%.%.%.%.%.%.%.%.%.%.",
"%.%.%.%.%.%.%.%.%.%.%.%.%.%.%.%.%.%.%.%.%.@.@.%.%.%.@.%.%.%.%.%.%.%.%.%.%.%.%.%.%.%.%.%.%.%.%.%.%.%.",
"%.%.%.%.%.%.%.%.%.%.%.%.%.%.0.%.%.%.%.%.%.%.%.%.%.%.%.%.%.%.%.%.%.%.%.%.%.%.%.%.%.%.%.%.%.%.%.%.%.%."
};
