/* XPM */
static char *_ff00528ae7246128bfd0f1cba16f68cFv4OMBHVNEXQp8e1[] = {
/* columns rows colors chars-per-pixel */
"50 50 223 2 ",
"   c #010201",
".  c #0A0301",
"X  c #020A00",
"o  c #0C0B03",
"O  c #030309",
"+  c #0B0E0B",
"@  c #09040B",
"#  c #130808",
"$  c #0F130B",
"%  c #0B1502",
"&  c #131A0C",
"*  c #14160B",
"=  c #121312",
"-  c #1C1B14",
";  c #1D1216",
":  c #231C14",
">  c #221B0B",
",  c #192403",
"<  c #272418",
"1  c #243316",
"2  c #3F2C1D",
"3  c #292B22",
"4  c #282521",
"5  c #322D27",
"6  c #353529",
"7  c #2E3726",
"8  c #45331D",
"9  c #433A2D",
"0  c #344225",
"q  c #3E4E29",
"w  c #414F1C",
"e  c #45492E",
"r  c #41522B",
"t  c #474A36",
"y  c #485634",
"u  c #595431",
"i  c #5D793E",
"p  c #53613E",
"a  c #4C5443",
"s  c #4F5A4A",
"d  c #535C4D",
"f  c #54564C",
"g  c #5A5656",
"h  c #535952",
"j  c #5A5C55",
"k  c #5B5759",
"l  c #565C5A",
"z  c #5C5C5C",
"x  c #545454",
"c  c #615B5D",
"v  c #675D54",
"b  c #6C5A42",
"n  c #59674B",
"m  c #5D6254",
"M  c #5B605D",
"N  c #576158",
"B  c #5F7B40",
"V  c #637D43",
"C  c #62714D",
"Z  c #63635D",
"A  c #656B59",
"S  c #75685D",
"D  c #657253",
"F  c #6A775C",
"G  c #746448",
"H  c #5D5E60",
"J  c #615F62",
"K  c #5D6361",
"L  c #626261",
"P  c #796E64",
"I  c #6E7464",
"U  c #777969",
"Y  c #7E7E72",
"T  c #C93E3B",
"R  c #D13D39",
"E  c #BD463A",
"W  c #CB413C",
"Q  c #C8443D",
"!  c #D4433E",
"~  c #B45E47",
"^  c #867C73",
"/  c #847D6B",
"(  c #CC4541",
")  c #CF4B47",
"_  c #D84848",
"`  c #C3574B",
"'  c #E34B4D",
"]  c #E74E51",
"[  c #E85355",
"{  c #CD6353",
"}  c #D67764",
"|  c #ED7A69",
" . c #668144",
".. c #698347",
"X. c #6B834B",
"o. c #6E894E",
"O. c #718C4F",
"+. c #758E55",
"@. c #72835F",
"#. c #7B955B",
"$. c #7D995D",
"%. c #769155",
"&. c #7B8A65",
"*. c #788669",
"=. c #7E9367",
"-. c #7C8771",
";. c #819B5E",
":. c #838866",
">. c #839D62",
",. c #85946B",
"<. c #838D74",
"1. c #86837E",
"2. c #988775",
"3. c #8D9C7B",
"4. c #879774",
"5. c #A28D77",
"6. c #A4947D",
"7. c #85A166",
"8. c #8CA56C",
"9. c #8EA96E",
"0. c #8BA367",
"q. c #94A46D",
"w. c #9DA36D",
"e. c #92AC6F",
"r. c #8FA474",
"t. c #8FAB73",
"y. c #92A673",
"u. c #9AA572",
"i. c #94AD74",
"p. c #99AC75",
"a. c #94A47C",
"s. c #9BA57A",
"d. c #95AD79",
"f. c #99AD7B",
"g. c #8FB175",
"h. c #94B075",
"j. c #98B176",
"k. c #95B17A",
"l. c #9AB17B",
"z. c #A7AB7A",
"x. c #B5B67F",
"c. c #A3A16E",
"v. c #F38B78",
"b. c #9C9C94",
"n. c #8F9583",
"m. c #AF9986",
"M. c #95A481",
"N. c #9BAC83",
"B. c #9AAA85",
"V. c #9DB182",
"C. c #9FB189",
"Z. c #A3AB83",
"A. c #A2B38A",
"S. c #A5B384",
"D. c #B9B985",
"F. c #B8AE95",
"G. c #BCBB92",
"H. c #ADB08C",
"J. c #A7A2A4",
"K. c #FF9D8E",
"L. c #D4BF9F",
"P. c #C2B794",
"I. c #F8A58B",
"U. c #FFA391",
"Y. c #F6AF91",
"T. c #FFB89A",
"R. c #D5BDA5",
"E. c #C8BBAD",
"W. c #FFBBA3",
"Q. c #BDC091",
"!. c #CBC28E",
"~. c #D7CE9B",
"^. c #CAC494",
"/. c #D4C4AC",
"(. c #D8C9A8",
"). c #D9D5A9",
"_. c #CAC2B4",
"`. c #DCCCB3",
"'. c #D7C9B7",
"]. c #DBD4B5",
"[. c #CEC3A7",
"{. c #FECDAA",
"}. c #FEC9A8",
"|. c #EDDBAD",
" X c #E8D6A9",
".X c #FDD5AD",
"XX c #F4DBAB",
"oX c #FADBAC",
"OX c #F7D7A7",
"+X c #E3CEB3",
"@X c #EBCEB1",
"#X c #E5D6B5",
"$X c #EAD3B4",
"%X c #EAD4BA",
"&X c #E8D6B8",
"*X c #FFD5B5",
"=X c #F3DBB5",
"-X c #FCDBB3",
";X c #F5DCBB",
":X c #FDDCBA",
">X c #F4D6B7",
",X c #E5CCAE",
"<X c #F2E2AF",
"1X c #EBE3B8",
"2X c #FAE2B5",
"3X c #F4E2B9",
"4X c #F6E2B6",
"5X c #D9CEC6",
"6X c #DED5C4",
"7X c #E3D6C4",
"8X c #E8DAC9",
"9X c #F3DCC4",
"0X c #E8DDD6",
"qX c #F4E3C7",
"wX c #F6E7D8",
"eX c #EBE0CC",
"rX c #ECE8E2",
"tX c #FFF4E5",
"yX c #FFF7ED",
"uX c #FFFBEB",
"iX c #FFFDF4",
"pX c #FFFEFA",
"aX c #F2E9E0",
/* pixels */
"d.d.d.e.j.e.h.e.d.i.h.i.i.d.j.i.i.l.d.l.d.d.d.d.l.d.i.f.i.d.k.i.e.p.j.j.i.d.d.r.0.i.j.i.e.h.t.h.h.i.",
"d.k.k.i.d.e.j.p.j.i.d.j.j.i.e.h.h.t.i.d.j.j.i.f.i.f.d.i.d.j.i.h.j.e.i.p.f.f.8.+.o.X.O.8.h.9.h.h.h.d.",
"d.d.i.i.j.i.j.h.e.i.h.h.h.i.i.h.e.h.h.d.i.i.l.e.i.i.y.j.j.e.e.e.i.h.d.i.i.d.r.#.#.+. .o.7.i.h.i.i.h.",
"d.i.i.h.j.i.j.i.h.h.i.e.h.9.$.%.h.e.j.e.i.e.p.d.l.p.i.j.h.9.h.j.i.j.h.i.i.i.k.i.8.e.;. .o.t.h.i.i.i.",
"i.d.j.q.>.>.#.>.$.$.=.$.%. . .#.e.j.9.h.p.i.l.k.4.N.d.i.e.h.i.i.k.i.i.i.i.d.d.i.q.e.h.$. .%.e.i.i.i.",
"i.i.>.X.V ..i B  .i i B ..o.$.9.h.h.d.d.f.A.=.y X.=.r.V.S.k.j.i.h.i.i.d.i.i.e.e.i.i.h.9.+.+.9.i.i.i.",
"e.e.X...$.>.7.7.7.7.8.7.7.t.h.i.l.N.V.M.3.n X 7 n 7 1 y D =.A.C.d.a.d.d.i.i.t.h.8.h.t.t.i.0.t.d.i.i.",
"i.e.V $.j.e.i.h.h.h.e.h.i.h.h.N.N.U I n X   % X X X     X % n <.N.N.a.i.i.i.i.t.h.9.i.9.9.i.t.y.i.i.",
"e.e.e.e.i.h.h.i.h.h.h.h.k.r.V.4.t 7 3 X X $   O + O + $ X   X   1 *.N.r.l.i.i.q.9.9.t.t.i.r.i.y.i.i.",
"j.e.i.e.h.h.h.i.t.h.e.p.d.V.,.1 X X     O O     O O       X $ $   X &.V.r.r.i.8.i.t.t.r.t.i.i.i.y.i.",
"j.i.i.i.p.h.h.h.i.h.d.f.N.4.% X &   o     O   @   O   O         * X 1 3.N.d.i.i.9.t.t.t.i.r.t.e.i.i.",
"i.h.p.i.i.i.h.h.h.p.d.d.B.t X &   X   X .   O                   X $ X D C.r.y.i.9.y.t.r.9.i.i.i.i.i.",
"i.h.h.d.i.i.j.e.p.e.f.s.*.X &                                       X % 4.A.d.y.i.t.r.t.y.i.t.r.e.i.",
"i.p.d.d.d.i.i.i.j.q.S.N.7   +                                     O $ X e a.a.i.r.i.t.t.t.r.i.i.i.i.",
"i.d.d.d.i.d.h.i.i.l.f.D X $   O O                               O     & X C C.t.d.t.d.r.i.i.t.i.i.i.",
"j.d.i.i.j.d.p.h.p.l.&.  %     O     O                         O O O . X X 0 y.a.t.d.y.d.y.i.e.e.y.i.",
"p.d.d.g.j.j.e.e.i.Z.a   =           O O O O     .   O       O   O       . X =.k.g.g.i.i.i.i.i.i.i.i.",
"p.d.g.h.p.j.e.e.l.4.- O O X   . . . O O O O     .     X       .   O O   $ X y d.h.t.t.d.i.i.i.i.i.d.",
"p.i.h.d.p.p.j.e.V.&.  =     o . . .     O     . * -       @   . X   O O O X X 4.N.d.d.f.p.d.i.t.h.p.",
"p.i.h.h.d.d.e.e.l.D   + X   O 6 6   *     O . < . . .   = +   X   + O @ . -   D N.s.f.f.d.i.h.h.h.i.",
"p.p.h.i.d.p.e.h.l.n   =   X . 6 6 O   -   - . . G F.. .   . 3 3 .   # # ; * X y N.s.f.p.i.d.d.g.h.h.",
"p.h.h.i.d.d.h.e.d.r   o   . - . . 6 Y X . . . 5.&X;X6.. S < : ^ . t . . . o o , M.d.d.d.p.d.h.g.i.i.",
"i.i.h.i.d.d.i.i.d.q X +     . . 6.9Xm.2 u b L.;X;X:X>XG R.+X. 5.8 m.^ 2 S . u n k.i.h.d.i.d.h.d.h.d.",
"i.h.i.i.d.d.e.i.d.y X & . < P 5X9XR.2.E.E.%X;X-X:X>X;X9X+X9Xm.5.m.R.9X+X9X:., l.g.g.g.h.d.h.d.g.h.i.",
"i.j.i.9.d.l.i.i.f.r X <   P 6X'.0XE.: n.wX`.(.-X>X9X@X/.8XE.# ^ 0X'.'.qXqX,.w j.i.g.h.i.h.h.h.h.i.i.",
"d.j.q.8.t.i.i.i.d.=.=.X e F.'.tXpX^   X 5XyX9XR.;X%X`.tXiXU . O 5XyX7X`.~.u p.p.g.g.h.j.i.p.i.i.i.i.",
"i.h.q.8.t.d.i.d.k.f.A.e Z.`.wXuXrX+ 4   b.pXiX7X%X/.tXiXrX  4 . J.pXuX].).S.p.j.i.i.e.p.p.p.e.h.h.h.",
"i.h.j.e.d.h.d.i.h.f.M.a.`.`.qXuXwX. <   b.pXpX7X7X/.uXiXrX. 3   J.pXiX'.].Q.q.j.p.d.p.p.p.p.p.p.p.d.",
"i.j.j.p.k.N.g.i.y.l.l.s.].#X(.wXiXn.O   5XiX8X/.qX#X/.uXpX1.    0XpX'.].1Xz.u.f.f.d.p.p.p.p.e.h.i.i.",
"i.i.p.p.d.g.h.i.e.j.d.q.~.=X=X/.]._.< / 0X/.`.=X=X3X#X[.6X_.- 2.7X/.].1X].z.z.f.d.d.i.p.i.i.j.d.j.i.",
"g.i.i.e.g.d.h.d.j.i.i.u.D.4X;X=X>X$X$X%X$X=X-XOX.XOX=X:X|.$X$X$X$X=X4X2X~.c.u.d.i.g.h.e.h.i.d.d.d.i.",
"g.i.d.d.d.h.d.h.i.i.h.y.x.<X=X-XoXXX:X-X-XoXoXOXoXoXoXOXoXXX-X-X-XoXXX<X!.c.p.d.g.h.h.h.i.h.h.k.p.i.",
"i.i.i.h.g.d.d.d.i.i.l.u.w.~.2XXX|.|.XXXX.XOXoXOXOXoXOXXXXX XoX.X.XoXXX|.D.q.j.h.g.i.i.p.i.h.p.h.p.h.",
"d.d.h.t.g.i.d.d.d.i.i.d.w.!.2XOX-X;XoX-X.X*X*X-XoX.X-X-X*X*X*X-X.X=X<X).w.p.t.h.h.i.d.d.p.p.p.i.i.i.",
"d.d.g.d.i.d.h.i.i.h.i.i.w.z. XoX{.I.U.K.K.K.K.K.U.U.U.K.K.K.K.Y.OXXX<XD.u.d.g.g.d.d.d.f.p.p.h.i.j.i.",
"f.i.d.d.i.d.p.p.d.i.h.i.j.u.P.4X{.} E ( ( R T ( Q ( T T R R ~ ~ {.<X~.w.j.h.k.g.d.d.d.d.p.d.p.i.i.i.",
"y.p.j.h.i.p.j.p.i.h.h.g.j.p.z.(.:X}.} ) ] [ ] ' ] _ ] ] [ ) ~ W.:X#Xz.z.p.j.e.g.e.h.h.p.h.h.d.d.h.d.",
"j.e.e.j.j.e.e.j.t.g.g.k.i.k.p.Z.|.-XW.) W [ _ ' ' ' ' ' ( { T.*X4XQ.w.l.p.i.e.h.e.e.p.i.d.d.h.h.i.d.",
"h.e.j.e.p.e.e.j.h.g.h.h.i.d.f.u.x.|.oXY.{ E R ! R ! ( E v.T..X-X^.u.p.q.j.9.h.h.j.e.i.i.i.h.g.d.h.i.",
"h.i.h.i.e.j.j.e.h.i.k.9.k.i.d.p.q.x. XoX}.K.v.| | | v.T.OXOX=X!.w.u.l.p.h.h.k.e.h.j.d.d.i.h.h.t.i.d.",
"g.k.i.i.q.r.8.0.$...q.h.e.l.i.i.i.q.z.^.-X:X*X*X*X*X-X-X4X).D.q.p.p.e.i.t.h.i.h.h.p.p.i.d.i.h.h.h.j.",
"d.g.#.V X.X.o.o.#.;.p.f.i.f.f.l.N.N.f.z.F.^.,X@X@X$X,X(.G.z.s.Z.f.N.f.k.d.d.i.i.p.p.p.p.f.d.d.k.e.i.",
"g.t...i.l.d.t.d.f.A.Z.s.B.a.4.4.<.U I I A j v S S S Z v j A U U <.<.3.M.B.N.V.V.f.p.y.i.d.i.t.d.i.d.",
"g.g.i.f.y.d.M.B.a.M.<.U A d d s f x g k k g g j k x l l z g x h s f N n M @.<.3.N.N.Z.f.p.e.i.d.i.h.",
"9.h.i.p.Z.a.3.*.F f x g j z z l l z c g z M K l z z j z c c z l z M M l x s x s A *.3.a.f.f.p.j.i.d.",
"k.d.N.s.,.F a n h g c c c z l K K z z c z l l l z z c c c J z j z z z H H H l z h s n D ,.a.f.f.f.d.",
"B.C.<.A d a N N z H c k H H z H H H H l z l H H c z z z z g z J c z z z H z H H l z N h s m -.B.d.d.",
"n.I t v j M l z H z H c z z z l l l l K H z l H z z z z H z c z c j c z z z H z H H l K N h l A M.a.",
"K l z z z j z M z z c z z z z z z z z z z z z M z z z z z z z z z z z z z z z z z z z z z z z j m <.",
"z z z z z z z z z z z z z z z z z z z c z z z z z z z z z z z z z z z z z z z c z z z z z z z j j m "
};
