/* XPM */
static char *d314ccd4990e4d09ea4c0b5eb6989421pevzy68Q9OgYsXwW[] = {
/* columns rows colors chars-per-pixel */
"50 50 50 1 ",
"  c #607F3C",
". c #63813F",
"X c #62823F",
"o c #648341",
"O c #678543",
"+ c #678544",
"@ c #678645",
"# c #688645",
"$ c #6A8847",
"% c #6A8848",
"& c #6B8948",
"* c #6C8949",
"= c #6E8B4B",
"- c #6E8C4C",
"; c #6F8D4D",
": c #708D4E",
"> c #718E4F",
", c #728F50",
"< c #739052",
"1 c #759253",
"2 c #769254",
"3 c #779355",
"4 c #779456",
"5 c #789457",
"6 c #7A9659",
"7 c #7B9659",
"8 c #7C975A",
"9 c #7C985B",
"0 c #7E9A5D",
"q c #809B5F",
"w c #809C60",
"e c #819C60",
"r c #849F64",
"t c #859F65",
"y c #85A065",
"u c #87A268",
"i c #88A268",
"p c #8BA56B",
"a c #8CA56D",
"s c #8EA76F",
"d c #8FA86F",
"f c #8FA870",
"g c #8FA970",
"h c #90A971",
"j c #92AC73",
"k c #93AB74",
"l c #93AC74",
"z c #93AC75",
"x c #94AC75",
"c c #95AE76",
/* pixels */
"cccccccccccccccccccccccccccccccccccccccccccccccccc",
"cccccccccccccccccccccccccccccccccccccccccccccccccc",
"cccccccccccccccccccccccccccccccccccccccccccccccccc",
"cccccccccccccccccccccccccccccccccccccccccccccccccc",
"cccccccccccccccccccccccccccccccccccccccccccccccccc",
"cccccccccccccccccccccccccccccccccccccccccccccccccc",
"cccccccccccccccccccccccccccccccccccccccccccccccccc",
"cccccccccccccccccccccccccccccccccccccccccccccccccc",
"cccccccccccccccccccccccccccccccccccccccccccccccccc",
"cccccccccllhlccccccccccccccccccccccccccccccccccccc",
"cccccclgy6116acccccccccccccccccccccccccccccccccccc",
"cccchw>X #=1=oqgckcccccccccccccccccccccccccccccccc",
"ccccg,$whhayw9X>ywgccccccccccccccccccccccccccccccc",
"cccclaccccchhy6= =qicccccccccccccccccccccccccccccc",
"ccccccccccccchhat2##accccccccccccccccccccccccccccc",
"cccccccccccccccccccccccccccccccchyyglccccccccccccc",
"ccccccccccccccccccccccccccccccccg6-+,tcccccccccccc",
"cccccccccccccccccccccccccccccccckgpw--yccccccccccc",
"ccccccccccccccccccccccccccccccccccclp%1acccccccccc",
"cccccccccccccccccccccccccccccccccccclyO0lccccccccc",
"cccccccccccccccccccccccccccccccccccccl2$yccccccccc",
"ccccccccccccccccccccccccccccccccccccccg%5hcccccccc",
"ccccccccccccccccccccccccccccccccccccccc6%ycccccccc",
"cccccccccccccccccccywwwttthkcccccccccccf#0lccccccc",
"cccccccccccccccczt5=>>>>,2pgccccccccccck5%iccccccc",
"ccccccccccccccccp512wwwqqwpaccccccccccccg%<pcccccc",
"ccccccccccccccccapaccccfaaacccccccccccccct+6hccccc",
"ccccccccccccccccccccccccccccccccccccccccck1=yccccc",
"ccccccccccccccccccccccccccccccccccccccccccg5gcclcc",
"cccccccccccccccccccccccccccccccccccccccccccawyyhcc",
"cccccccccccccccccccccccccccccccccccccccccccchhhlcc",
"cccccccccccccccccccccccccccccccccccccccccccccccccc",
"cccccccccccccccccccccccccccccccccccccccccccccccccc",
"cccccccccccccccccccccccccccccccccccccccccccccccccc",
"cccccccccccccccccccccccccccccccccccccccccccccccccc",
"cccccccccccccccccccccccccccccccccccccccccccccccccc",
"cccccccccccccccccccccccccccccccccccccccccccccccccc",
"cccccccccccccccccccccccccccccccccccccccccccccccccc",
"ccccccccccccccchfpppapiazccccccccccccccccccccccccc",
"cccccccccccchat81>==##=>9ifccccccccccccccccccccccc",
"ccccccccccfu8>O#>126882,##20tuaakkcccccckfpfkccccc",
"cccccccccf8##,thcccccccca5=oXO>150tuppppt5,0kccccc",
"cccccccccpqihccccccccccccccza01>%o++-,>-=#,pcccccc",
"ccccccccccccccccccccccccccccccccchpw5,,20pcccccccc",
"cccccccccccccccccccccccccccccccccccccccccccccccccc",
"cccccccccccccccccccccccccccccccccccccccccccccccccc",
"cccccccccccccccccccccccccccccccccccccccccccccccccc",
"cccccccccccccccccccccccccccccccccccccccccccccccccc",
"cccccccccccccccccccccccccccccccccccccccccccccccccc",
"cccccccccccccccccccccccccccccccccccccccccccccccccc"
};
