/* XPM */
static char *_be1fa2e65bc432bb7dc4f3f00fc333ffKjE8IaLQpEGTiJy[] = {
/* columns rows colors chars-per-pixel */
"50 50 202 2 ",
"   c None",
".  c #130000",
"X  c #3B0000",
"o  c #3E0000",
"O  c #4E0000",
"+  c #530000",
"@  c #540000",
"#  c #560000",
"$  c #570000",
"%  c #590900",
"&  c #5C1200",
"*  c #5D1C00",
"=  c #602500",
"-  c #633000",
";  c #663500",
":  c #663700",
">  c #693C00",
",  c #693E00",
"<  c #6E461A",
"1  c #6F481E",
"2  c #6F4A22",
"3  c #714D27",
"4  c #735131",
"5  c #735132",
"6  c #745030",
"7  c #745132",
"8  c #755537",
"9  c #77573B",
"0  c #78593F",
"q  c #7A5B42",
"w  c #7A5C43",
"e  c #7B5C44",
"r  c #7C5F49",
"t  c #7E604A",
"y  c #7E614C",
"u  c #805F44",
"i  c #80644F",
"p  c #826753",
"a  c #826854",
"s  c #836955",
"d  c #836956",
"f  c #836957",
"g  c #846A58",
"h  c #856C5B",
"j  c #866E5C",
"k  c #876F5E",
"l  c #876F5F",
"z  c #87705F",
"x  c #877060",
"c  c #8A7262",
"v  c #8B7567",
"b  c #8D7767",
"n  c #8E796B",
"m  c #917C6E",
"M  c #948175",
"N  c #958175",
"B  c #958376",
"V  c #968478",
"C  c #9B897E",
"Z  c #9B8A7F",
"A  c #9B8B80",
"S  c #9C8B80",
"D  c #9D8C80",
"F  c #9E8E83",
"G  c #9F8E84",
"H  c #A09086",
"J  c #A19187",
"K  c #A19288",
"L  c #A39489",
"P  c #A4948B",
"I  c #A4958C",
"U  c #A6978E",
"Y  c #A6988F",
"T  c #A6998F",
"R  c #A89990",
"E  c #AA9B91",
"W  c #A99C94",
"Q  c #AA9E95",
"!  c #AFA197",
"~  c #AFA299",
"^  c #AFA29A",
"/  c #B0A39B",
"(  c #B1A39B",
")  c #B0A59D",
"_  c #B3A59C",
"`  c #B5A79F",
"'  c #B3A9A2",
"]  c #B4A9A1",
"[  c #B4AAA3",
"{  c #B7ABA3",
"}  c #B9ACA4",
"|  c #B9AEA7",
" . c #B9AFA9",
".. c #BDB1AA",
"X. c #BCB2AC",
"o. c #BDB2AC",
"O. c #BDB3AD",
"+. c #BEB3AC",
"@. c #BDB4AF",
"#. c #BFB6AF",
"$. c #BFB6B0",
"%. c #C3B7B0",
"&. c #C1B7B2",
"*. c #C2B9B3",
"=. c #C2B9B4",
"-. c #C6BBB4",
";. c #C5BCB7",
":. c #CBC1BB",
">. c #CBC2BC",
",. c #CAC3BF",
"<. c #CCC2BC",
"1. c #D0C7C1",
"2. c #D1C9C3",
"3. c #D2C9C4",
"4. c #D1CAC6",
"5. c #D3CCC7",
"6. c #D5CDC8",
"7. c #D6CDC8",
"8. c #D6CFCA",
"9. c #D8D1CC",
"0. c #DBD2CD",
"q. c #D8D2CF",
"w. c #DAD2CE",
"e. c #D9D4D0",
"r. c #DAD5D2",
"t. c #DCD7D4",
"y. c #DFD9D5",
"u. c #DEDAD7",
"i. c #DFDBD8",
"p. c #E0D9D5",
"a. c #E0D9D6",
"s. c #E3DDD9",
"d. c #E1DDDB",
"f. c #E5DFDB",
"g. c #E6DFDB",
"h. c #E6E0DD",
"j. c #E6E1DD",
"k. c #E4E1DE",
"l. c #E7E2DF",
"z. c #E8E2DE",
"x. c #E6E2E0",
"c. c #E7E4E1",
"v. c #E6E4E3",
"b. c #E9E4E0",
"n. c #E9E4E1",
"m. c #EAE4E0",
"M. c #EBE6E3",
"N. c #E9E6E4",
"B. c #ECE7E4",
"V. c #EAE8E6",
"C. c #EEE8E4",
"Z. c #EFEAE7",
"A. c #EDEBE9",
"S. c #EFEDEB",
"D. c #F0ECE9",
"F. c #F0ECEA",
"G. c #F0EEEC",
"H. c #F2EEEC",
"J. c #F2EFEC",
"K. c #F3EFED",
"L. c #F3F0ED",
"P. c #F3F0EE",
"I. c #F4F1EF",
"U. c #F5F2EF",
"Y. c #F6F2F0",
"T. c #F6F3F1",
"R. c #F6F3F2",
"E. c #F7F4F2",
"W. c #F7F5F3",
"Q. c #F6F5F4",
"!. c #F6F5F5",
"~. c #F9F6F4",
"^. c #F9F7F5",
"/. c #FAF7F5",
"(. c #F8F7F6",
"). c #FAF7F6",
"_. c #F9F8F7",
"`. c #FAF8F6",
"'. c #FBF8F6",
"]. c #FBF9F7",
"[. c #FBF9F8",
"{. c #FBFBFB",
"}. c #FCFAF8",
"|. c #FDFAF9",
" X c #FDFBF9",
".X c #FDFBFA",
"XX c #FCFBFB",
"oX c #FCFCFB",
"OX c gray99",
"+X c #FDFCFC",
"@X c #FDFDFC",
"#X c #FDFDFD",
"$X c #FEFDFC",
"%X c #FFFDFC",
"&X c #FEFDFD",
"*X c #FEFEFD",
"=X c #FFFEFD",
"-X c #FEFEFE",
";X c #FFFEFE",
":X c #FFFFFE",
">X c #FFFEFF",
",X c white",
/* pixels */
"                                                                                                    ",
"                                                                                                    ",
"                                                                                                    ",
"                                                                                                    ",
"                                                                                                    ",
"                              > 3 e f i > O               & q x n j =                               ",
"                        @ Z 8.U.E.{.%XXXU.j.:.~ v h I >.j.D.'.,X,X,XH.q.F @                         ",
"                      f z.,X,X,X,X,X,X,X,X,X,X,X,XXX,X,X,X,X,X,X,X,X,X,X,Xg.t                       ",
"                    j '.,X,X{.,X,X,XOX,X,XOX,XOX,X,X,X{.,X{.,X,X,X,X{.XX,X,XE.f                     ",
"                  < H.,X{.,X,X,X,X,X,X,X,X,X,X,X,X%X,X,X,X,X,X,X,X,X,X,X,X{.,XA.2                   ",
"                  6.,X,X,X,X,X,X,X,X,X,X,X,X,X,X,X,X,X,X,X,X,X,X,X,X,X,X,X,X{.,X<.                  ",
"                z ,X,XXX,X,X,X,X,X,X,X,X,X,X,X,X,X,X,X,X,X,X,X,X,X,X,X,X,X,X,X,X~.9                 ",
"                +.,X{.,X,X,X,X,X,X,XOX,X,X,X,X,X,X,X,X,X,X,X,X,X,X,X,X,X,X,X,X,X,X/                 ",
"              + M.,X,X,X,X,X,X,X,X,X,X,X,X,X,X,X,X,X,X,X,X,XXX,X,X,X,X,X,X,X,X,X,Xa.o               ",
"              p %X,X,X,X,X,X,X,X,XXXc.S.,X,X,X,X,X,X,X,X,X,X,XE.c.Q.,X,X,X,X,X%X,XU.1               ",
"              N ,X,X,X,X,X,X,X%X,Xq.o u Q.,X%X,X,X,X,X,X,X,X,X! . / ,X{.,X,X,X,X,XXXg               ",
"              R ,X,X,X,X,X,X,X,X,XQ.y.x.,X,X,X,X,X,X,X,X,X,X,XA.q.A.,X,X,X,X,X,X,X,XC               ",
"              ) ,X,X,X,X,X,X,X,X,X,X,X,X,X,X{.A.,X,X,X{.A.,X,X,X,X,X,X,X,X,X,X,X,X,XR               ",
"              ' ,X,X,X,X,X,X,X,X,X,XOX,X,X,X{.| ,X{.,XV.=.,XXX,X{.,X,X,X,X,X,X,X,X,XI               ",
"              ' ,X%X,X,X,X,X,X,X,X,X,X,X,X,X,X4.e.,X,XX.d.,X,X,X,X,X,X,X,X,X,X,X,X,XK               ",
"              ' ,X,X,X,X,X,X,X,X,X,X,X,X,X,X,X,X@.1.@.&.,X,X,X,X,X,X,X,X,X,X,X,X,X,XP               ",
"              X.,X,X,X,X,X,X,X,X,X,X,X,X,X,X,X,XOXy.j.,X,X,X,X,X,X,X,X,X,X,X,X,X,X,XH               ",
"              W ,X,X,X,X,X,X,X,X,X,X,X,X,X,X,XOX,X,X,X,X,X,X,X,X,X,X,X,X,X,X,X,X,X,Xj               ",
"              p ,X,XOX,X,X,X,X,X,X,X,X,X,X,X,X,X,XOX,X,X,X,X,X,X,X,X,X,X,X,X,XOX,X~.8               ",
"                Z.,X,X,X,X,X,X,X,X,X,X,X,X,X,X,X,X,X,X,X,X,X,X,X,X,X,X,X,X,X,X{.,XB.@               ",
"                8.,X{.,X,X,X,X,X,X,X,X,X,X,X,X,X,X,X,X,X,X,X,X,X,X,X,X,X,X,X,X%X,Xq.                ",
"                 .,X,X,X,X,X,X,X,X,X,X,X,X,X,X,X,X,X,X,X,X,X,X,X,X,X,X,X,X,X,X,X,X*.                ",
"                C ,X,X,X,X,X,X,X,X,X,X,X,X,X,X,X,X,X,X,X,X,X,X,X,X,X,X,X,X,X,X,X,XH                 ",
"                r XX,XOX,X,X,X,X,X,X,X,X,X,X,X,X,X,X,X,X,X,X,X,X,X,X,X,X,X,X,X,X}.w                 ",
"                  j.,X%X,X,X,X,X,X,X,X,X,X,X,X,X,X,X,X,X,X,X,X,X,X,X,X,X,X,X,X,Xb.O                 ",
"                  @.,X,X,X,X,X,X,X,X,X,X,X,X,X,X,X,X,X,X,X,X,X,X,X,X,X,X,X,X,X,XX.                  ",
"                  C ,X,X,X,X,X,X,X,X,X,X,X,X,X,X,X,X,X,X,X,X,X,X,X,X,X,X,X,X,X,Xm                   ",
"                    D.,X,X,X,X,X,X,X,X,X,X,X,X,X,X,X,X,X,X,X,X,X,X,X,X,X,X{.,XH.:                   ",
"                    &.,X,X,X,X,X,X,X,X,X,X,X,X,X,X,X,X,X,X,X,X,X,X,X,X,X,X{.,X2.                    ",
"                    b ,X,X,X,X,X,X,X,X,X,X,X,X,X,X,X,X,X,X,X,X,X,X,X,X,X,X,X,XS                     ",
"                      a.,X,X,X,X,X,X,X,X,X,X,X,X,X,X,X,X,X,X,X,X,X,X,X,X%X,XM.*                     ",
"                      L ,X,X,X,X,X,X,X,X,X,X,X,X,X,X,X,X,X,X,X,X,X,X,X,X,X,X`                       ",
"                      - D.,X,X,X,X,X,X,X,X,X,X,Xy.x.,X,X,X,X,X,X,X,X,XXX,X~.t                       ",
"                        ' ,X{.,X,X,X,X,X,X,X,XP.    XX,X,X,X,X,X,X,X,X,X,X3.                        ",
"                        7 Y.,X,X,X,X,X,X,X,X,XY     +.,X,X,X,X,X,X,XOX,X,Xc                         ",
"                          %.,X,X,X,X,X,X{.,Xy.        U.,XOX,X,X,X,X,X,X8.                          ",
"                          7 U.,X{.,X,X,X,X,XN         Q ,X,X,X,X,X,X,X~.0                           ",
"                            E ,X,X,X,X,X,X1.          @ A.,X%X,X,X{.,X{                             ",
"                            o q.,X,X{.,X~.4             J ,X,X%X{.,XM.%                             ",
"                              ; g.,X,X,XV                 -.,X,X,XB.7                               ",
"                                * / 5.N                     ~ d.+.>                                 ",
"                                                                                                    ",
"                                                                                                    ",
"                                                                                                    ",
"                                                                                                    "
};
