/* XPM */
static char *_849a665c25a4ceab57c11eb72ae43c4mZHn7p9oP6YpURxS[] = {
/* columns rows colors chars-per-pixel */
"50 50 238 2 ",
"   c #000403",
".  c #000900",
"X  c #01080E",
"o  c #071306",
"O  c #00041D",
"+  c #000826",
"@  c #08162B",
"#  c #1D2532",
"$  c #112A58",
"%  c #3A4A49",
"&  c #4C5845",
"*  c #586A44",
"=  c #707D5F",
"-  c #55756A",
";  c #71884E",
":  c #728C53",
">  c #798E58",
",  c #759254",
"<  c #7B955C",
"1  c #799659",
"2  c #6C8450",
"3  c #768769",
"4  c #7D9661",
"5  c #819B5D",
"6  c #859C63",
"7  c #889E68",
"8  c #88987B",
"9  c #8BA46C",
"0  c #8DAA6D",
"q  c #87A569",
"w  c #93AD6D",
"e  c #99AC6E",
"r  c #92A86A",
"t  c #93B16D",
"y  c #99B26E",
"u  c #8EAC74",
"i  c #8EAC7B",
"p  c #8CA677",
"a  c #94A674",
"s  c #94AE74",
"d  c #99AC74",
"f  c #94A67B",
"g  c #94AD7B",
"h  c #99AB7B",
"j  c #8DB274",
"k  c #8DB27D",
"l  c #93B074",
"z  c #99B275",
"x  c #94B17A",
"c  c #9AB17A",
"v  c #96B97C",
"b  c #33548C",
"n  c #1F5AB4",
"m  c #265BBB",
"M  c #295BB5",
"N  c #325CB2",
"B  c #3866AA",
"V  c #2C64BC",
"C  c #2A66BA",
"Z  c #356ABA",
"A  c #3C76B8",
"S  c #2C62AC",
"D  c #447298",
"F  c #4975AE",
"G  c #4374B5",
"H  c #4576BB",
"J  c #4A73BA",
"K  c #497AB9",
"L  c #517FBB",
"P  c #2B5FC5",
"I  c #2E64C2",
"U  c #2C64CC",
"Y  c #2C6CCA",
"T  c #2966C4",
"R  c #326BC4",
"E  c #336ACC",
"W  c #386BC9",
"Q  c #2E73CD",
"!  c #3C75C3",
"~  c #3B79C4",
"^  c #3D75CA",
"/  c #3E7ACC",
"(  c #3575C9",
")  c #2E64D3",
"_  c #2C6CD3",
"`  c #2D6ADA",
"'  c #2D64D8",
"]  c #356CD3",
"[  c #336AD5",
"{  c #3473D5",
"}  c #3C75D3",
"|  c #3D7BD5",
" . c #3574DB",
".. c #3C7CDC",
"X. c #3775D8",
"o. c #3475E4",
"O. c #3C7BE4",
"+. c #3C7CEB",
"@. c #3879E6",
"#. c #3B7EF2",
"$. c #4375C5",
"%. c #427AC4",
"&. c #4375CB",
"*. c #427ACC",
"=. c #4C7BCC",
"-. c #4B74C8",
";. c #5278C6",
":. c #4376D3",
">. c #437BD4",
",. c #4176DB",
"<. c #447CDB",
"1. c #4A7BDB",
"2. c #4B77D7",
"3. c #437CE4",
"4. c #427DEB",
"5. c #487BE8",
"6. c #457DF2",
"7. c #4177F1",
"8. c #53899B",
"9. c #6F9696",
"0. c #79A49A",
"q. c #5883AA",
"w. c #5383B5",
"e. c #5983B6",
"r. c #5583BB",
"t. c #5A83BB",
"y. c #5989B8",
"u. c #578CB5",
"i. c #6795A8",
"p. c #6797B9",
"a. c #749BB8",
"s. c #628CA4",
"d. c #7BA7AA",
"f. c #7BA6B3",
"g. c #7EA9B4",
"h. c #7CA5B9",
"j. c #6FA0A7",
"k. c #3E81DB",
"l. c #3D82E4",
"z. c #3D81EB",
"x. c #4C84CD",
"c. c #4683D9",
"v. c #5586DA",
"b. c #598CC9",
"n. c #668DC3",
"m. c #6395C4",
"M. c #6B93C4",
"N. c #669AC4",
"B. c #699AC6",
"V. c #6C93CA",
"C. c #649ACB",
"Z. c #6597CD",
"A. c #6E8FD4",
"S. c #6B91D3",
"D. c #6498DB",
"F. c #7D9ED5",
"G. c #7193D0",
"H. c #7594C2",
"J. c #7AA3D3",
"K. c #7BA1DA",
"L. c #7FA7C0",
"P. c #4482E4",
"I. c #4B82E5",
"U. c #4382EC",
"Y. c #4982ED",
"T. c #4B89EC",
"R. c #478AE9",
"E. c #588CE9",
"W. c #5D92E4",
"Q. c #4584F3",
"!. c #4983F3",
"~. c #4A88F4",
"^. c #4788F8",
"/. c #528AF3",
"(. c #5B91F3",
"). c #6596E3",
"_. c #6C9DE4",
"`. c #6C9BEB",
"'. c #6599E9",
"]. c #749CEB",
"[. c #6D9CF4",
"{. c #709CF3",
"}. c #77A5E4",
"|. c #6EA2F5",
" X c #74AAFE",
".X c #6DA0E2",
"XX c #8C9880",
"oX c #8DAE82",
"OX c #8EAD8D",
"+X c #8EA787",
"@X c #93AD83",
"#X c #9BAB82",
"$X c #93AB8B",
"%X c #9AAD89",
"&X c #97A782",
"*X c #8CB284",
"=X c #8DB08D",
"-X c #97B386",
";X c #8DAC93",
":X c #8BAD9D",
">X c #84A999",
",X c #91AC93",
"<X c #8AB19D",
"1X c #8CB294",
"2X c #92B295",
"3X c #A0AF8A",
"4X c #85ABA2",
"5X c #8BACA2",
"6X c #83A6AF",
"7X c #89AAA9",
"8X c #89B1AA",
"9X c #83A6B4",
"0X c #82AAB3",
"qX c #85A6BA",
"wX c #87A8B7",
"eX c #90AEAE",
"rX c #82AAC9",
"tX c #8FBAE4",
"yX c #98B8E9",
"uX c #92BAF9",
"iX c #8EBEFF",
"pX c #99C4FF",
"aX c #9DCAFF",
"sX c #95C2FC",
"dX c #9ED1FF",
"fX c #A5D5FF",
"gX c #A1CFFF",
"hX c #CBEEFF",
"jX c #C5EFFF",
"kX c #D2EDFF",
"lX c #C9F3FF",
"zX c #D4F5FF",
"xX c #DAF4FF",
"cX c #D5FBFF",
"vX c #DCFDFF",
"bX c #E4FCFF",
"nX c #EAFDFF",
"mX c #E8F7FF",
/* pixels */
"g s l z y t h h g g h g s s x d l w y r d z h s h j t 0 l l x k g c s e z g @Xk l t e d h h s w s s ",
"g s a w w w a s h s s s c c x s s w t l l u h -Xa s s x x u i oX$Xp h d a g g k j t d d h g d s x d ",
"g h c z d z l x l l l l s 0 0 z s x l z 0 x g g g h h h g @X*X1X>X;X*Xu x d g g s l s s h s l w s s ",
"h s x s w q 1 : ; , 1 1 : ; < 0 d a x l j q -Xs #Xh h &X$X:X4Xj.8.j.>XoXx d d g j l l s h s s x s s ",
"d d 9 6 : 2 : < 1 , , , < 4 9 s d h %Xg z v 9 s a &X%X,X5Xh.n.H ! K 0X2Xf d h d s s l j s g s s s l ",
"c 7 : : < 7 p 9 l 0 9 u u s s d d h &X3Xg 7 c s #X@X:XwXa.L &.3.U.~ i.4X%Xd d h h j l j u g s h s d ",
"r 6 < 7 s x s u u s s s s w e d d #X3XXX&   8 $X+X<Xg.y.&.<.U.O.4.*.D 9.%Xa h h s j l x x s g s d x ",
"h r w s l s t l t s s d d d d d h &X= o   X % 5X8Xi.F *.4.U.O.O.<.L s.>X&Xh h d g l s u s g g x s s ",
"h s s l t w t w w c h g h #Xf 3X8 &     # + + q.y.A X.z.+.4.c.H w.i.8X,Xg s x s x u h d a z l l w x ",
"x s s l t t s t h c h #Xh %X%X=     # @ + $ b K c.U.+.+.P.| H y.d.>X;X@Xa s h s s s h h z z q 1 6 a ",
"l l t t w s d g #Xh h g h h * .   @ O + b L x.<.P.o.+.P.&.L a.8X;X-X@Xg s c x u l h d h s 6 1 , q a ",
"t l 0 t s d g @Xf h s d l -X3 . @ @ $ B =.2.c.O.O.U.,.$.n.rX8X;X+Xg h h g x s l l x d a 6 > , 1 0 l ",
"l s e t d s h h g z t t q j -X- O b ;.-.3.3.o.4.<.$.t.a.4X;X@Xf h h h %X@Xg g l t l s r > < 9 u l d ",
"s j w s l h h #Xs s t t v *X4Xa.D v.2.3.6.4.P.*.H M.qX5X$Xg s s d s h &X@Xx i j t t e 6 ; 9 x x s s ",
"g g s s d h h g s h j *X1Xf.F.;.2.,.7.7.4.3.%.u.f.8X;X+X%Xg u w w w d g h g s u j w w 5 ; u x u s s ",
"@Xg g d h h g @Xg oXoX4Xg.y.-.5.5.4.7.3.} K m.g.1X*Xi g h d x t t w d d g h l l x s w 5 > x u x x s ",
"g x g g #X#X@X*XOX>X8Xp.K >.5.7.7.4.1.-.y.qXeX;XoXk g g h h d w j s s d h g u l s d w 7 9 f g g s s ",
"s s s h h f OX1X4Xd.u.G >.4.5.3...^ ;.H.wX:X$X+Xj j l s h h s s j l d d s s l l d g s 9 a g @Xs h l ",
"d w w x g $X<Xd.p.w./ P.O.O.U./ A p.9X:X*Xk %Xg j j t l d s z x j l s d s s l s s c z s s x l s l s ",
"z t 0 l g OX0.8.A k.l.@.z...~ y.p.d.1Xg 0 j h g j j t l h h g s s s s s s j u s a d z w s l 0 t x s ",
"t l t l @X,X9.D k.k.+.+...%.m.L.8X1X@Xh g g g g x g l h g @X@X@Xg g @X@Xg g h &Xg u s w l s w y s s ",
"s g l s #X,X>Xi.A k.+.O.c._.rX0Xd.<X,X$X;X;X;X$XOXOXOX,X;X;X;X:XOXOX;X:X;X;X,X,XOX@Xs s c s w e s d ",
"oXx u s h %X,X0Xr.:.P.(.|.}.J.h.0X0X9XwXqX9X9X9X9XqXwX9Xg.g.g.0X6X6Xg.h.f.d.eX7X>X1X-Xg x x s w l s ",
"g g s d h &X$X7Xn.=.<.I.v.=.r.y.y.r.e.e.r.r.w.w.t.r.L r.r.w.w.w.w.w.b.r.w.w.L L s.>X-Xu u s s s d s ",
"s s w d h #X@X:XM.$.<...,.} | >.,.<.>./ =.>.| | :.>.>.<.,.<.| >.<.>.} <.| | 2.J u.d.=Xi i j d d s s ",
"s s y s d h g :XB.! 4.4.I.T.~.l.+.+.4.+.Y.Y.z.+.z.o.!.5.!.4.z.@.#.4.Y.~.z.+.7.:.w.g.;Xi s h s h s s ",
"d s t s g x oX4Xm.>.4.O.,.M M X.+.z.z.+.P m O.+.@.z...m m  .^.#.z.O.M m @.z.#.5.r.g.$Xd s d h h h s ",
"l d s l g i oX4XC.W 4.O.v.pXfXW.@.#.@./.sXpX/.O.z.O.>.dXfX X` ^.@.Y.iXpXT.o.^.,.b.qX$Xd d d h a s x ",
"g g s x i i oX5XC.^ U.E S.zXcX}.U ^.' '.vXcX`.U 6.O.A lXcXsXM T.Y `.cXvX'.{ 5.2.r.qX$Xe d d d h s s ",
"l x i h x h @X:Xm./ !.W V.xXnXF.E Q.` '.cXnX].P 6.4.H jXxXyXC T.U `.mXnXD.R Y.:.L 9X%Xh d h d g s d ",
"j l s s d d g :XB.^ 4.] G.xXvXK.I ^.Y D.bXnX].P ^.O.G lXvXyXC U.` `.nXbXD.Q P.:.x.L.$Xs s l j j x s ",
"l l l s e d h :XN.^ Y.E V.xXvXK.R Q.Y `.mXnX{.) z.O.H hXvXyXV ^.` {.nXvXD.{ 4.} b.L.;Xg i l j l l s ",
"s s w s g h @X:XB.^ 5.W H.zXbXJ.I Q._ D.bXbX].` 6.3.J hXvXtXC ^.[ `.nXvX). .U.>.r.0X;Xg @Xx g j s d ",
"s s l d g @X@X4XB.^ Y.W V.xXvXK.I ~._ D.bXbX].) !.5.J hXvXtXC Q.) `.nXvX). .4.,.e.0X;Xg i g h s s s ",
"h h s s g @XoX:XB.&.P.W V.zXvXK.V ~._ ).bXbX_.U 6.1.J kXvXyXC ~.Y _.nXvX).{ P.>.e.6XOX@X@Xg s s x s ",
"g s l d h g oX>XN.^ Y.W V.xXbXK.I ~._ ).bXnX}.U 6.2.J kXvXyXC R.E _.nXbX).{ P.%.e.9X$Xg g g s w d s ",
"x s e t d d g 1Xp.~ I.W V.xXmXrXI Q.[ ).mXnX].) !.1.F kXmXyXC R.Y D.nXmX).{ P.k.e.9X$Xg g @Xs t l s ",
"g s t w e d l 1XN.~ P.W V.xXmXrXT ^._ ).nXmX`.) Q.<.F kXmXyXR ~.Y }.nXmX).{ l./ t.9X,Xg i g l w d s ",
"j s t t e d s >XB./ 4.] A.xXmXF.T Q._ ).bXvX_.Y Q...F lXmXyXC z.Y .XnXmX).{ P./ e.wX$Xg g g s t l s ",
"s l s s y d g :XC.| 4.] A.kXmXF.R ^.` '.vXbX`.T U.k.F lXnXyXC Q._ .XnXmX).X.l.*.L qXOXg g s l s d s ",
"@Xi g d g h @X5XC.| Q.E S.xXbXJ.I ^.` [.bXbX`.) U.<.G zXmXyXI ^._ `.nXnX'. .U.| t.wX;Xh i g s s s s ",
"g g g g h h @X5XC.R 3.^ S.zXvXJ.V ~.' `.bXvX{.) !.<.J jXnXyXP ^.` '.bXbX). .4./ L wX,Xg g s s s s s ",
"g g g g g h @X5XC.*.P.( b.cXvXJ.Z Y.' ).zXbX`.[ 6.1.G hXmXyXm ^.` {.cXcXW.] P.1.L wX$Xf u s s h x s ",
"x i g g g g @X:XB.>.c.R S.cXcXK.R Y.' [.cXcX|.U 6.,.%.lXvXuXI ~.) |.vXcX'.] 3.>.e.eX,Xf u l s c h s ",
"s l s s s s i >XN.&.I.,.v.uXaXv.{ l.o./.aXaXR.o.4.O.P. XiX'.X.+.X.E.gXfXv.| I.*.e.0X,X@Xj j s d d s ",
"e s g l t j l :Xa.$.<.5.2.N M c.l.l.z.3.M S c.l.3.Y...C V :.P.P.1.=.S S >.c.>.x.q.6X;X@Xi l d d d s ",
"d s g x s t u OXp.B ^ :.$.=.=.( ( ( :.&.;.=.A ~ ^ :.| c.&.&.~ ! $.&.>.>./ ^ ^ A q.d.;Xi j j e e d s ",
"h g g s j t t oXd.p.B.m.M.m.m.C.C.Z.B.n.p.M.N.m.M.y.m.m.B.M.N.N.m.V.Z.Z.C.m.n.p.i.8XOXg j l d e d d ",
"d s s s s l x g OX:X:X5X5X5X4X5X4X5X5X5X5X5X<X5X5X5X5X5X5X5X5X:X5X5X7X7X4X4X5X<X;X=Xg g l l s s s s ",
"d s s s s s g s x @X@X@X@X@X$X-X@X@X@X-X@X@X@X@X@X@X-X@X@X-X@X@X@X@X@X$X@X@XoX-Xg x g s g s h s s s "
};
