/* XPM */
static char *_3c606eb1d6d4f90b51f0d3ee63dcb0aiBpsmESyYaJurVB2[] = {
/* columns rows colors chars-per-pixel */
"50 50 124 2 ",
"   c None",
".  c #B4772C",
"X  c #B27D57",
"o  c #B27E5B",
"O  c #B18062",
"+  c #B1816B",
"@  c #AF8476",
"#  c #AF857C",
"$  c #B18373",
"%  c #B0867A",
"&  c #AE8781",
"*  c #AD8A8C",
"=  c #AC8D95",
"-  c #AB8E9A",
";  c #AB909D",
":  c #AA92A5",
">  c #A995AC",
",  c #A797B2",
"<  c #A896B1",
"1  c #A798B6",
"2  c #A999B5",
"3  c #A59ABB",
"4  c #AC9DBB",
"5  c #BAA2B9",
"6  c #A49EC4",
"7  c #A89FC4",
"8  c #A29FC8",
"9  c #9FA5D6",
"0  c #9EA7DA",
"q  c #9DA8DE",
"w  c #ABA1C4",
"e  c #A3A1CB",
"r  c #AAA4CC",
"t  c #B0A3C5",
"y  c #B1A7CB",
"u  c #A0A3D2",
"i  c #A8A7D4",
"p  c #AAA8D4",
"a  c #A2AADE",
"s  c #A9ABDB",
"d  c #B0AAD3",
"f  c #9BABE4",
"g  c #97AFEE",
"h  c #99AEEB",
"j  c #97B0EF",
"k  c #9FB2EF",
"l  c #8EBBFF",
"z  c #96B2F4",
"x  c #9AB2F3",
"c  c #92B6FE",
"v  c #93B6FC",
"b  c #90B8FF",
"n  c #91B8FF",
"m  c #90B9FF",
"M  c #91B9FF",
"N  c #92B8FF",
"B  c #93B8FF",
"V  c #90BAFF",
"C  c #91BAFF",
"Z  c #90BBFF",
"A  c #93BAFF",
"S  c #92BBFF",
"D  c #94B9FF",
"F  c #95B9FF",
"G  c #95BBFF",
"H  c #97BAFF",
"J  c #91BCFF",
"K  c #92BCFF",
"L  c #92BDFF",
"P  c #92BEFF",
"I  c #94BCFF",
"U  c #96BCFF",
"Y  c #97BCFF",
"T  c #91B9FF",
"R  c #9BBBFF",
"E  c #99BDFF",
"W  c #9BBCFF",
"Q  c #9ABFFF",
"!  c #9CBDFF",
"~  c #9EBDFF",
"^  c #9DBEFF",
"/  c #9DBDFF",
"(  c #A9AFE2",
")  c #A9AEE2",
"_  c #A9B0E5",
"`  c #A9B0E6",
"'  c #A0B1EC",
"]  c #A9B2E8",
"[  c #AAB3E9",
"{  c #A8B3EA",
"}  c #AAB3EB",
"|  c #AEB4EA",
" . c #AAB5ED",
".. c #A8B2E9",
"X. c #B5B4E4",
"o. c #B5B5E6",
"O. c #B8B7E7",
"+. c #B1B8ED",
"@. c #B3B8ED",
"#. c #A7B6F1",
"$. c #A6B7F5",
"%. c #A7B7F4",
"&. c #A8B6F0",
"*. c #A8B5F0",
"=. c #A7B8F5",
"-. c #A6B8F6",
";. c #ACB8F1",
":. c #A2B9F9",
">. c #A5B9F9",
",. c #A4BAFA",
"<. c #A3BBFD",
"1. c #A0BBFE",
"2. c #A1BBFE",
"3. c #A2BBFE",
"4. c #A1BCFF",
"5. c #A3BFFF",
"6. c #A6BCFC",
"7. c #A6BCFE",
"8. c #A3BBFD",
"9. c #93C2FF",
"0. c #94C0FF",
"q. c #9DC4FF",
"w. c #9CC2FF",
"e. c #ACC4FF",
/* pixels */
"                                                                                                    ",
"                                                                                                    ",
"                                                                                                    ",
"                                                                                                    ",
"                                                                                                    ",
"                                                                                                    ",
"                                        = < y +.d                                                   ",
"                                  ; 3 o.O.w : # k 4                                                 ",
"                              2 +.o.6 -         = 5.&   $ * : 3 s 4                                 ",
"                            : ,.=               - F x  .,.~ E m J l r                               ",
"                            3 |         X = 3 [ R c m m m m m J U E ;.&                             ",
"                            : 5.% o - w  .~ m m c c c m m U 1.( 2 *                                 ",
"                            < D k =.E m m m v m m m E ,.i > %                                       ",
"                        % 7 v m m m c c m m m ~ &.7 ; +                                             ",
"                    $ w 1.m c c v m l U 4._ 1 =                                                     ",
"                  2 :.m m c m J w.6.s > &                                                           ",
"                t l m m l c k e : %                                                                 ",
"                a l 4.q > # .                                                                       ",
"                5 3 @ & 7 6 e e e r r e e e e 8 e e r e r e e e e r e 8 e e e >                     ",
"                      < 9.l J J l J l m J m m l m J m m m J m J J m m l m m l e                     ",
"                      > D F c c c c c c c c c c c c c c v c c c c c c c m v m e                     ",
"                      > w.c v c c c v c c c c c c c v v c v c c c F c c v v J p                     ",
"                      & ; : > > > > < > < < > > > > > > < < < < > > > > > > ; *                     ",
"                          < D F c z v v z z z v c z v v z z j v v x v v m |                         ",
"                          1 x < h l c 9 < c h : g l v 1 8 l 8 1 b b v 3 8 '                         ",
"                          ; E f : c z : c c l f > l u 6 l v l 6 u 9.8 3 l s                         ",
"                          * w.l < z v 1 c c l g 1 l 9 u l v l u 9 l 3 q 9.i                         ",
"                          # 7.m < z c < c c c f 3 l q 8 c v l 6 q 9.3 q l e                         ",
"                          O :.l 3 h l < c c l f 6 l f 6 l v l 6 f l 1 j l 3                         ",
"                            _ l 3 f l < z c l q 6 l f 6 l v l 3 f l , j l 3                         ",
"                            s l 6 0 l < z c l 9 8 l h 1 l c c 3 j v > z J <                         ",
"                            6 l 9 e l < z c l 9 u l g 1 l c c 1 z c > m U >                         ",
"                            , J q 6 l 1 g l l e 9 l j 1 c c l , z j < c E :                         ",
"                            > 9.f 3 l 1 g c l 8 9 l j 1 l c c 1 F g 1 l E ;                         ",
"                            = E g < l 3 f c l 8 0 l v < c c c < c f 3 l ~ =                         ",
"                            * ~ v < l 3 f l l 6 q l v < c c v < l 0 6 l 4.*                         ",
"                            @ 4.c > l 6 f l l 6 f c v < v c v < m e 9 l :.#                         ",
"                              %.l < v 8 0 c l 3 f l c < v c z < l 6 q l 8.@                         ",
"                              _ l 1 z e 0 m l 3 h l c 1 z l z 1 l 3 f l =.+                         ",
"                              s l 3 h 9 9 l c 3 g c c < z l z < c < g l #.                          ",
"                              6 l e q q u l c 3 j m c 1 j l x 3 c > z l [                           ",
"                              < 9.9 9 q u l c 1 z c m 3 g l g 3 c < c l (                           ",
"                              : J q e q 6 l v < z c m 1 h m h 3 z > c l s                           ",
"                              = U x e f u l l 3 v m l 6 g l g e z 6 l m e                           ",
"                              & e.E 1.~ ~ ~ ~ ~ ~ ~ ~ ~ ~ ~ ~ ~ ~ R ~ w.r                           ",
"                                * - - = = = = - = = = = - = = - = - = = &                           ",
"                                                                                                    ",
"                                                                                                    ",
"                                                                                                    ",
"                                                                                                    "
};
