/* XPM */
static char *_ff4df9b35744a76d35eb4525796447fzACu4KdPjHYa86C2[] = {
/* columns rows colors chars-per-pixel */
"50 50 235 2 ",
"   c #000D00",
".  c #1D0200",
"X  c #250400",
"o  c #2D0300",
"O  c #2B0B00",
"+  c #320F00",
"@  c #3D0200",
"#  c #2A1600",
"$  c #3C1200",
"%  c #3C1F00",
"&  c #351A00",
"*  c #162F09",
"=  c #232201",
"-  c #232A03",
";  c #2A2300",
":  c #3C2400",
">  c #382704",
",  c #263606",
"<  c #373A0B",
"1  c #2F3C10",
"2  c #333C12",
"3  c #393B18",
"4  c #430200",
"5  c #471900",
"6  c #541500",
"7  c #581E00",
"8  c #442300",
"9  c #4B2904",
"0  c #542C00",
"q  c #582C00",
"w  c #57360C",
"e  c #583B15",
"r  c #6B3D12",
"t  c #693B07",
"y  c #35420B",
"u  c #36411C",
"i  c #3B4A1B",
"p  c #394317",
"a  c #3D4322",
"s  c #3A572B",
"d  c #47491C",
"f  c #534A1F",
"g  c #6B4719",
"h  c #794B1C",
"j  c #73440B",
"k  c #4D4B24",
"l  c #454924",
"z  c #445523",
"x  c #4A562A",
"c  c #5C5C2D",
"v  c #565425",
"b  c #585B32",
"n  c #4F522E",
"m  c #675928",
"M  c #695D35",
"N  c #745128",
"B  c #4C652E",
"V  c #4E6432",
"C  c #5A693A",
"Z  c #59713D",
"A  c #6C633B",
"S  c #626A3B",
"D  c #73693C",
"F  c #786736",
"G  c #6B723A",
"H  c #7C733D",
"J  c #74773E",
"K  c #666127",
"L  c #5C6844",
"P  c #5E7644",
"I  c #676943",
"U  c #766A41",
"Y  c #627946",
"T  c #6B7B47",
"R  c #797643",
"E  c #727552",
"W  c #697754",
"Q  c #894A1E",
"!  c #83571C",
"~  c #875A25",
"^  c #94592B",
"/  c #845E36",
"(  c #97683A",
")  c #89723A",
"_  c #987738",
"`  c #886733",
"'  c #AB623A",
"]  c #A67A3B",
"[  c #B3653F",
"{  c #836C41",
"}  c #897749",
"|  c #9A7849",
" . c #967F54",
".. c #8C7B50",
"X. c #A77843",
"o. c #AD774D",
"O. c #66814B",
"+. c #6A824D",
"@. c #6D8552",
"#. c #6F8851",
"$. c #6F845D",
"%. c #738B55",
"&. c #778A5B",
"*. c #788758",
"=. c #7A935E",
"-. c #75925E",
";. c #77814C",
":. c #7D9563",
">. c #7C936C",
",. c #D38E3E",
"<. c #CD923D",
"1. c #D2933F",
"2. c #8A8449",
"3. c #978347",
"4. c #8C8254",
"5. c #888756",
"6. c #9A8B5C",
"7. c #989258",
"8. c #A68A4B",
"9. c #BF8947",
"0. c #B48E4D",
"q. c #BA8749",
"w. c #A88A58",
"e. c #B38D55",
"r. c #BB8A57",
"t. c #A8985C",
"y. c #B59254",
"u. c #BB9454",
"i. c #B5945E",
"p. c #BD955B",
"a. c #B79B5C",
"s. c #B7924C",
"d. c #B0A25E",
"f. c #8C8D69",
"g. c #928E60",
"h. c #849763",
"j. c #829A65",
"k. c #8C9B6A",
"l. c #869668",
"z. c #909B6D",
"x. c #9A9764",
"c. c #879D72",
"v. c #A28B63",
"b. c #A98961",
"n. c #A49465",
"m. c #A59C64",
"M. c #AC9C64",
"N. c #AC9D6C",
"B. c #A89568",
"V. c #B19B62",
"C. c #BC9A69",
"Z. c #B79667",
"A. c #A99B72",
"S. c #AA8F72",
"D. c #8BA46D",
"F. c #8FA96E",
"G. c #87A868",
"H. c #9EA46C",
"J. c #93AD6D",
"K. c #9AAC6E",
"L. c #97A666",
"P. c #8DB26D",
"I. c #94B16E",
"U. c #9BB36E",
"Y. c #9BB166",
"T. c #8DA572",
"R. c #8EAB73",
"E. c #8EAC7A",
"W. c #8BA977",
"Q. c #93A574",
"!. c #9DA673",
"~. c #94AD75",
"^. c #9AAC75",
"/. c #94A579",
"(. c #9BA77D",
"). c #95AD7A",
"_. c #9AAC7B",
"`. c #8EB273",
"'. c #8EB27C",
"]. c #94B174",
"[. c #99B174",
"{. c #96B17A",
"}. c #99B27A",
"|. c #91B97A",
" X c #ACA260",
".X c #A4A56C",
"XX c #A9A46D",
"oX c #A3AB6E",
"OX c #A2A864",
"+X c #A2B06C",
"@X c #A3A471",
"#X c #A2AC74",
"$X c #A5AD7A",
"%X c #AAA777",
"&X c #AEA96F",
"*X c #CC8E44",
"=X c #C58D4C",
"-X c #CC8D4C",
";X c #C68E47",
":X c #D38D43",
">X c #D38C4B",
",X c #D98A4E",
"<X c #D68749",
"1X c #CC9144",
"2X c #C4924C",
"3X c #CC924A",
"4X c #C39346",
"5X c #D39144",
"6X c #D1924A",
"7X c #C38B55",
"8X c #CC8D53",
"9X c #C88A57",
"0X c #D38C52",
"qX c #DA8B57",
"wX c #C39453",
"eX c #CB9354",
"rX c #C4925A",
"tX c #CB945A",
"yX c #C09853",
"uX c #D49154",
"iX c #D89356",
"pX c #C49363",
"aX c #C89762",
"sX c #9CAC82",
"dX c #96AA82",
"fX c #9AB182",
"gX c #96B981",
"hX c #A2AA83",
"jX c #CAB38B",
"kX c #C1AC8D",
"lX c #DFC9A2",
"zX c #E0CDAD",
"xX c #F3D8B4",
"cX c #EDD9C1",
"vX c #FFF7D9",
/* pixels */
"^._.~.~.^.^.)._.K.K._._._.).Q.}.sX(.sXsXsX(.(.^.^.I.P.P.`.].].{.~.~.~.~.].~.~.~.~.~.~.~.~.~.~.~.~.~.",
").~.~.].K.~.).).~.F.sXsX)._._.~.).(./.).sXdX_._.~.J.P.P.P.].~.~.~.].^.~.~.~.~.~.~.~.[.~.~.[.}.~.~.~.",
"E.`.].I.I.~.).).).}.dXdXdXc.&.%.%.k.T.fX).E.fX).~.~.R.].].~.^.~.~.~.{.~.~.[.}.~.R.~.~.~.}.~.F.~.~.~.",
"E.{.].P.I.].)._.~.T.>.L u < y y y , , z P >.E.).{.).R.].).~.).).}.~.~.~.~.~.~.~.}.J.~.~.~.].}.~.~.~.",
"}.Q.~.].P.P.~.).G.S < d M R 3.2.2.R G v i p z :.).dX).).).).).).~.~.{.{.~.~.{.R.~._.).~.~.Q.~.~.~.~.",
"_.~.[.].P.`.{.h.G < D 6.w.C.i.p.V.d. X7.5.T z i h.sXsX)._.).{.E.~.).).~.{.{.~.D.:.~.].~.{.}.~.).~.~.",
"!.!._.~.`.R.&.C K ) e.pXrX9XeX=XwXu.rXZ.a.N.2.d b z.sXdX_.).].].~.}.~.~.{.%.C O.+.B O.~.].~.~.~.~.^.",
"#X$XW.{.|.=.n < F e.rX9X8X8X*X>X6XeX=XwXp.V.B.R 3 *.(.).}.).].`.).R.}.~.%.%.F.{.].~.%.V B @.R.).~.].",
"$X_.W.{.dXL k ..C.pX0X0XtXeX-X5X:X,X:X-X3XrXi.w.v v T.fX).}.F.].~.}.Q.~.%.R.{.{.~.).).~.~.R.~.{.~.^.",
"Q.).W.'.c.n v b.w ( 0XuX~ j =X1X,.:X:X*X>XeXp.w.{ y @.{.E.].J.].~.{.~.}.D.{.~.~.~.~.}.{.R.Q.~._.].~.",
"fXE.`.`.c.n D } . 9 7Xq.+ O 8.3X5X5X,.,.<.3XwXu.w.v z R.}.F.U.K.~.].~.).}.}.Q.~.{.}.).~.~.~.).].~.~.",
"E.'.|.G.E b } F cXS.X._ jXlX! eX:X1.<.,.<.*X3XwXa.H y =.|.].~.^.~.Q.~.~.).~.~.{.).~.~.~.{.).~.~.~.].",
"sX).`.`./.I x.F vXkX_ ` xXvX~ uX:X*X<.<.<.<.*XeXC...d Y R.{.~.^.~.~.[.~.~.~.~.~.~.~.~.~.~.[.~.~.~.~.",
"Q.).].`./.- b.} zXS.] _ jXxX^ 0X>X*X1X<.<.<.:X-XwXw.c z ).E._.^.~.~.}.~.~.^.].~.~.~.~.~.~.~.~.~.^.].",
"[.^.).Q._.= {  .X g 7X2Xt o 9X0X,X<X1X<.<.1.:X>X9XZ.A u T.E._.~.^.~.~.~.~.~.].~.~.~.~.~.~.~.~.~.~.~.",
"^.^.).).Q.S : Z.| r.-X6Xq.X.0X<X,X>X5X<.5X5X:X<XtXpX..3 @.fX~.^.~.~.~.}.~.].~.^.~.[.].~.~.~.~.~.].~.",
"_.~.)._./.k.; g pXpX,X,XiXqX-X<X0XiX*X5X,.,.,.1X8XpX| v C )._.~.~.~.~.].~.~.~.~.~.~.~.~.~.~.].{.^.~.",
"!.Q.E.}.).}.R > h r.qX<XqX,X0X9X8X8X2X1X:X,.1.<.-XrXw.m n dX[.~.[.~.~.~.].^.].~.^.].~.~.{.{.~.J.~.].",
"[.+XI.J.].K.@XF @ 6 Q [ ' o.' ^ Q Q ~ ;X5X,.<.;X*XwXe.m i dX).~.~.~.~.~.~.~.~.~.~.~.].~.Q.~.~.).~.).",
"Y.[.I.J.J.!.@XB./ 5 4 4 6 6 5 6 r r q j -X,.5X<.*X2Xp.F 1 dX_.~.~.~.].{.~.~.~.~.).~.).[.}.}.~.~.h.D.",
"J.J.L.].~.#X$X@XS.b.( h w e N b.w.b.` 5 q.-X>X*X5X4XyX) 1 c.dX~.~.).).T.k.j.j.j.j.:.j.T.W.).T.T.+.:.",
"}._._.}._.Q.!.$XhX%XA.S.B.v.S.A.A.C.b.5 ! =X0X>X6X4X4X_ p $._.~.{.).T.:.%.@.@.@.@.T +.#.:.j.:.@.:.Q.",
"dXW.fX).)._._.^.#X!.#X#XoX!.Q.$X%XXXV.N 5 rX8X,X>X-X4X3.x L ).`.Q._.~.R.T.).).~.~.).T.&.Y Z Y %.D.{.",
").sX)._.(._.^.^.~.[.J.~.~.~.}.~.^.XXM.8.X e.-X,X,X>X4X8.c n ).{.~.~.).W.).}.}.~.}.).).).{.}.).~.Q.{.",
").).).~.).^.~.~.~.P.`.].].`.).~.~.oXd.t.$ { 0X,X<X>X4X8.M l _.).~.~.~.~.{.~.~.~.~.{.).~.).~.).).].~.",
"].E.].~.~.~.^.].I.].`.`.`.~.).).^.+X Xt.e g uX<X<X>X1X0.M l (.).[.~.~.~.~.~.~.].~.~.~.).].).].].].~.",
"`.P.~.~.].K.J.[.I.I.I.].~._._.!.^.K.OX X) $ =X:X:X:X1X0.A a (._.~.~.J.].~.~.~.^.~.~.~.[.^.~.~.^.~.~.",
"].].].~.~.~.~.^.^.J.~.^.^.^.^._.Q.^.+XOXn.o ] 6X:X,.5X0.U 3 dX_.~.^.].^.^.].].~.].~.~.~.~.].~.~.~.~.",
"].].).~.~.~.^.~.^.^.I.^.K.^.^.^._.^.U.L.M.9 ! 2X5X:X-X0.U 3 dX_.~.].~.~.~.~.~.[.^.~.~.~.~.].^.~.^.].",
"~.E.).~.).).).).~.~.~.K.~.^.^.^._.^.U..XM.h q tX*X:X*Xe.A 3 !.^.^.~.~.~.~.~.~.~.~.].].^.~.~.~.].~.~.",
"~.~.).).).{.{.).{.E.].~.].].~.E.~.~.~.#XM.) + r.-X5X2Xe.A l K.K.].~.~.~.].^.~.~.~._.).~.{.~.~.).{.~.",
"~.~.).~.).E.).{.).].E.).`.].`.~.~.^.^.K.&XB.o | -X>X2X8.M l K.K.^.~.].~.~.].~.~.].].~.~.~.~._.~.).~.",
"~.~.~.^.~.^.{.~.{.~.].~.].].~.].].~.^.#XoX7.f r 9X-X2Xu.M e D.!.Q.}.R.~.`.].R.].~.].~.^.^.~.^._.^.~.",
"~.~.~.].~.~.~.~.~.~.~.~.~.~.~.~.~.~.#X#XH.&XR O 9X0X3XwX} 3 5.).).~.{.].}.R.].].].~.~.~.~.^.^.~.~.].",
"~.].].~.~.].~.~.].~.~.~.^.~.~.~.~.{.).~.K.XXt.O ( 2X3X9.3.f b )._.dX}.E.~.{.~.`.`.].`.~.].~.].].^.~.",
"~.^.~.~.^.].~.~.~.~.~.].].~.].).).)._.~.^.H.m.g t tX3X2Xy.F < @.E.).dX}.{.E.}.E.~.`.`.`.`.`.~.].].~.",
"~.].~.].~.^.~.]._.].).~.).].).~._.~.).{.^.+XXX} o r.eX;XwX8.v i k.}.~.^._.}.R.{.~.{.).{.).).).).).~.",
"~.^.~.~.~.].^.].~.).~.{.).~.~.).~.~.W.{.^.#XXXn.: ~ eX2X3Xs.7.;.C h.Q._._._.Q.).).).).).).)._.^.~.~.",
"{.).~.).).{.~.).].).~.~.~.).}.~.K.[.R.).~.!..X%Xm 8 r.uX6X4Xa..Xc 1 /.)./.{.}._.~.).^.^.^.K.^.~.~.~.",
"~.~.{.~.~.~.).~.).~.).~.{.~.~.~.].J.].{._.(.#XK.g.# ( 8X6X1Xu. Xg.2 p /.)._.E.).(._._.!.!.^.^.~.~.].",
"{.Q.~.~.~.~.~.~.~.~.~.Q.~.~.).~.J.I.^.^.sXhX^.!.H.m 5 o.eX>X=Xu.N.f.2 - V @./.sX(.hXsXf.E $.@.:.).~.",
"{.).}.].~.:.%.%.+.%.@.%.=.F.{.].].].^._.dX(.K.K.+X7.e q 7X8X-XeXC.N.7.J d , , i I C 3 = a * * s ).~.",
"~.~.^.~.j.j.D.].}.~.R.~.j.#.%.D.{.R.z.!.(.sX~.I.L.OX6.8 Q 7XeXeXwXu.d.d.7.5.R c k l I E a   * >.).].",
"].~.].~.].~.~.~.~.}.}.~.~.~.j.#.O.O.;.k.(._.I.J.Y.Y.@X{ + ~ wXtXwXyXs.a. X XA.x.g...k = a W >.dX).~.",
"[.~.~.F.~.~.~.^.~.~.~.~.~.~.~.).).E.).^.^.~.I.U.L.+X@X@XF : 0 h X.Z.i.Z.V.x...A k ; 3 E f./.sXdX_.~.",
"~.~.}.[.~.~.~.[.~.~.~.}.].].~.~.`.)._.}._.~.F.J.Y.L.(.%Xx.4.m w : % 8 8 > # > d b E z././.sX(.dX~.].",
"~.~.~.~.~.].~.~.~.~.~.~.].].~.~.).~.F.~.].~.~.~.^.Q.$X(.!.#XOX5.2.H H D R ..5.h.z.Q.{.].].[.^.^.^.~.",
"~.~.~.~.~.~.~.[.~.~.~.~.~.~.~.~.~.].].].].~.~.^.^.}.Q._._.#XL.[.oXH.H.H..X@X@X!.^.~.I.I.J.J.K.^.].~.",
"~.~.~.~.^.~.~.].~.~.~.^.~.].[.~.~.~.].^.].~.~.^.~.^._.^.^.~.^.^.^.^.^.^.!.^.^.^.^.].].].~.~.^.].~.~.",
"~.~.~.].].~.^.~.~.].~.].~.~.~.~.~.~.~.~.~.~.~.].).^.~.~.^.~.~.^.^.^.^.^.[.^.~.^.~.~.~.~.~.~.~.~.^.]."
};
